/* XPM */
static char *result[] = {
/* columns rows colors chars-per-pixel */
"64 64 79 1 ",
"  c #7D6C39",
". c #7F7337",
"X c #7E7038",
"o c #807536",
"O c #817B34",
"+ c #817638",
"@ c #8E7F3F",
"# c #8E7A42",
"$ c #88AB1D",
"% c #90B41F",
"& c #82852F",
"* c #868C2E",
"= c #888F2E",
"- c #859A25",
"; c #87912C",
": c #8A932E",
"> c #8E9C2D",
", c #929E2F",
"< c #848333",
"1 c #888735",
"2 c #868930",
"3 c #8A8C35",
"4 c #8E823D",
"5 c #8F8B38",
"6 c #91863D",
"7 c #918C3B",
"8 c #8E9334",
"9 c #919335",
"0 c #929B32",
"q c #989F37",
"w c #96943C",
"e c #99953E",
"r c #969838",
"t c #989B39",
"y c #8CA624",
"u c #8DAC21",
"i c #8FA22A",
"p c #92AC25",
"a c #93A52C",
"s c #95AB2B",
"d c #8FB120",
"f c #93B423",
"g c #98B727",
"h c #96BC20",
"j c #98B826",
"k c #97B128",
"l c #9AB42B",
"z c #9CBA2F",
"x c #95A134",
"c c #98A433",
"v c #9CAD34",
"b c #9DA43C",
"n c #9FA83B",
"m c #9DB432",
"M c #9FBB31",
"N c #A0A53F",
"B c #A2BC34",
"V c #A3B53B",
"C c #A0C52D",
"Z c #A5C92E",
"A c #A4C331",
"S c #908240",
"D c #968C42",
"F c #998B45",
"G c #9A844B",
"H c #9A8848",
"J c #9A9242",
"K c #9D9A42",
"L c #A19E46",
"P c #A3974D",
"I c #A49B4C",
"U c #A79554",
"Y c #A89357",
"T c #A69851",
"R c #A89A51",
"E c #9FA141",
"W c #A2A344",
"Q c #A6AC43",
"! c #A7A34B",
/* pixels */
"h%hh%hhZ%h%%hh%hhdhdhhhhChhhhhh%h%hh%hhZhhddhhdhh$h%hhhhZ%hhhhh%",
"hh%%h%hhZhZhhhhhdhhdh$hhdZhZhd%hhhfdh%hhChAhhhhhdhh%h$%h%ZhZh%%h",
"%%%%h%h%hhh$h%hZhhdhhfmhdhhhdhhf%fdvjdhuggbuhdhZhhdhhhhh%hhh%hh%",
"%h%Zhh%h$h%$h%hZhdB8hfUvhhdh&>Cj%fsUngkI0i*&uxlChdB>hh%hhh%h%hZh",
"hZZhh%hhhkdhhhhhpgrFMmRYzyad9KMVkb1FET05Ser sUQEfjrDMZ%%h$%%h%CZ",
"hZhhh%hZBDkfbghjExTGE1JYnxDsDRE!FJ#X<<=EHFJSKRRRjxTwgM%Zh$%h$hhC",
"h%h%$h%hBQJAO7slPDGD3JY#<,S;..OFYG #FJ<KJYFGXGYYbwHxiJM%%hhh%hh%",
"h%hh$%ffg!UKF4x2S #STJ##SKDSFHHX#G #YGSYYYYGG###4.#0EJgap%hhh%%h",
"%%%h%hfbcIUUF#OF##Y#YY##YY##YYGGG# GYY#YYYYYG# #HGGXYsjObAhhZhh%",
"h%h%CAgJYYGXXH#UYY## ###YY##YYGGG###  GGYY#  G#YUGGX.h24shZd%hhh",
"%$fhhzm0H  GGG#GYY#Y #Y##  GYYGYG#GGG ##G  GGG#GYYGU.wYrsfhgh%%%",
"%$hhhfMM2HUYGYG #### #YYY# ##YYGG#YGGG#  GYYGYG  ##G2nJLc0<>u%hh",
"h%%hfc;xF GYYG#GY####YYY####G ###GYYYG GG GYYG#GGG##3EUGG1shhhhh",
"h%hhdf.IUG## #GY#Y#Y#YY###YYG#GGG  ##  YYG## #GYGGGH4TUF4adhhZh%",
"hhZhhAf ##GG  YYYYY##YYY#YY#G#GG GGGG#  ##GG  YYYYGGSUINzZ%hZZhh",
"%hhZa7JYGYGGG  YY### #Y##YYYGG##YYGY##GYGYGGG  YYGGG GYF6VZhChh%",
"h%hs*TYYYGYG###GYYYG ##  GYYYG#GYYY##YYYYYYY####YYYG ##X<0Bhdh$h",
"h%hhf0IUYYG# G##G  ##GGG  ##  # ######Y#YY######G  ##GGHOXshhdhh",
"hhhZh5@.G###YGG#  YGYGGGGG# GGG###YY########Y#Y#  YGYGGHGH0;khh$",
"hZZhfsH +GYYGGYGG#GYYYYYGG# GG###Y#YY#####YY#YY#G#GYYYYYGH#.xZ%h",
"ZZ%grrcG#YYYYYGG## ##YYG#G##Y###YYYY##YY#YYYYY#YG# ##YYGGG#9vhZh",
"Z%hgxUIF## #YYYGG##GG######G ##YYYYYYYY#####YYY#G GGG### H9sdhCh",
"%%gpm7ST#GGG##YYG#YYYYGG##GG###YYY#YY##Y######YYG YYYYGG42Js$hhf",
"%hbe87H GYYGG#G# #YYYGGGG#YGYG##YYY######YY#Y### GYYYGGGD#Ysh%%h",
"h$f&FUG YYYYGG ###YYYYY# #YYY########Y##YYYY#Y# ##YYYYYHX#Qghhfh",
"hh%y2UU#GYYYY #G###YY###Y###YY#YY### YY##YYYY GGG##YYG .TKcsgf$h",
"%f%hi4###  GY#YYGGY####YYY###Y###### #######Y#YYGGG#G#GYGIFSJhh%",
"hhBs0<HGGG  #GYYYY# #Y#YYY############G#G#  ##YYYYG  G#YYYHFydhh",
"hZsEFSRUGGG#G GYYG####Y##YY##Y#Y#YGY##YYGGG#G GYYG  GGG##YUchZhf",
"ZZhka0RUYG#GGG ####YYY#######Y###YYGG#YYYG#GG#####GYYYGG#H.=alZh",
"Ch%gvESG  ##GG#GG#YYY#YYY#######GYYYYY#G  ##GG##G#YYYGGGG#FDrsCh",
"hhhcWFG GGGG  GGG#YYYYY###YY#Y###  YYGG GGGG  GGG#YYYYYGXGUTrpdh",
"hdjfEDXYGYGGG  G##YYYG  ##YYY##YYGG#YG YGYGGG  G##YYYG  G#Y#Rzhd",
"hhdiiOXYYYYYGG##  GYG  YY##Y##YYGG###  YYYYYGG##  GYG  YG##YKsdh",
"d%uUIJHSYYYG  GGGG  #YYYY#####YYYG#YYGG#YYYG  GGGG  #YYYYGG#Jhhd",
"%hhQUUYYG#   GYYYGG##GYYYYY#####  GYYYYYG#   GYYYGG #GYYYYYGyhZh",
"hZCjERS##GG GYYYGGGGG#YYYYY##YY#G# GYY###GG GYYYGGGGG YYUPFFpdCC",
"hZs& #+GGGG#GYYYYYYG###YYYY##YYYGG#    GGGG#GYYYYYYGG GYPUqpuhhC",
"hhySY# YGYGG GYYYGGG#G## #######YG #GG YGYGG GYYYGGG#G##.58fdhhd",
"h$haY##YYYYGG#### ##YG###Y#######G #YG#YYYYGG#G G ##YGG#SUFdhhdh",
"dhdgbI,IYYYY####GGG YYG YYY#YYY#G# GYY#YYYYYG# GGGG YUG UUEfZhhd",
"hdpu3.DKYY#####YYGG    #####YY#YG###  GGYYG  G#YYGG    #HUFSshhh",
"d$KEc88S# #G####YYGY GYG####YY#YG#GGG ##G  GGG#GYYGY GYGXXOxlfdh",
"%$hDFGS<##YYYYY  ##G YGY#####YY#G#YGGG#  GYYGYG  ##G YGYFD2S:fhh",
"hhdjEF G###YYG#GGG## YYG###Y#####GYYYG GG GYYG#GGG## YYGFSSFxhhh",
"hdhji1.UYG## #GYGGGG#YYG###YY###G  ##  YYG## #GYGGGG#YYG##DnjZhd",
"hhChgxX ##GG  YYYYGG#YYY#YY####Y GGGG#  ##GG  YYYYGG#YYY UEsZChh",
"dhhAiKGYGYGGG  YYGGG GYG#YYYY###YYGY##GYGYGGG  YYGGG GYHS!QlChhf",
"hhhdyEUUYGYG###GYYY##### #YYY###YYYG YYYYGYG###GYYYG ##XOsCh%h$%",
"hdhhhyERYYG# G###  ###Y#  ## ####  # GYYYYG# G##G  ##Gee2ifhh%hh",
"hhhChgf.G##GYGG## YGYG#YY## GGG#GGYGG## G##GYGG# XYGYHefp0afhhh%",
"hZChhsF  HUYGGYGG#GYYYYY### GG##GYGYGGG  GYYGGYGHSK!IIQncfy$hZh%",
"ZChh%dsipuxUYYGGG####YYG#Y##Y###YYYGGGGG YYYYYGGF1-c5!sh%h%hhhZh",
"Chhhhhjda9.SYYUG# #GG######G  #YYYYYHYUH#S #YYYGJ2xDJ69p%%h%%hZh",
"h%h%hhChhpkq#SREHoYYYYGH##GG###YYYGGR##Y4HGG##UUe8gvTUJs$%hh$h%%",
"%hhhhhChAlvkDSKx1FYYYGHF##YGYG# YYUF##G GYYGGSJHmxg%mxxghhhhh%hh",
"h$h$%hh%dhharxhp0@UIUYYDX4TIYGG# .O GUF IYUUGF<OhfjhhZh%hhZhhh%h",
"hh%$hh%hhdhhzuhga4@IYDOoWK78TI4YUFr4*LL9rUULL<Fsd$fhhhCZhZZhh%$h",
"h%hhhhhhfhZhhhhhfs05FasYcQs8Hx0F+<akp50p>28slaEgdhhh%%hChC%%hhh%",
"hhChhZhZhdCZhhZhggg2p$pWvfpt2u85:smh%BfZhdzCjjAhhhh%h$hhh%%%h%hh",
"hZ%hhCZhh%hChZ%%hZ%phhhjuhussAsshZ%hhZZ%h%hChZ%%hZhhhhhh%h$hhZh%",
"ZChh%hC%%%hh%hh$hhZZhhZh%h$%hhZhZZhh%hZ%%%hh%hh$hhCZhhZhhh$%hhZh",
"Ch%hhh%hh$hhhh%h%hhChZhh$%hh%hZhC%%hhh%hh$hhhh%h%hhChZhh$%hh%hZh",
"hhh%h%%h%hhZh%%h%h%h%h%%hh%hh%%hhhh%h%%h%hhZh%%h%h%h%h%%hh%hh%%h"
};
