/* XPM */
static char *result[] = {
/* columns rows colors chars-per-pixel */
"64 64 158 2 ",
"   c #0F0E0E",
".  c #050C0E",
"X  c #110E0E",
"o  c #10100F",
"O  c #0E1314",
"+  c #0F181C",
"@  c #141314",
"#  c #1D1513",
"$  c #151719",
"%  c #121A1D",
"&  c #1D1D1D",
"*  c #3A100D",
"=  c #221413",
"-  c #271816",
";  c #211E1C",
":  c #2A1816",
">  c #371712",
",  c #3A1712",
"<  c #331815",
"1  c #3D1813",
"2  c #29261E",
"3  c #121D22",
"4  c #0F2027",
"5  c #0F232B",
"6  c #152229",
"7  c #0E2935",
"8  c #0E2D3A",
"9  c #112933",
"0  c #102D39",
"q  c #0F313F",
"w  c #10313F",
"e  c #252525",
"r  c #2F2A20",
"t  c #262628",
"y  c #2C2B2B",
"u  c #302E2E",
"i  c #36312A",
"p  c #3F3935",
"a  c #363434",
"s  c #4E120D",
"d  c #50150E",
"f  c #431914",
"g  c #4A1A13",
"h  c #511710",
"j  c #561C14",
"k  c #5A1D14",
"l  c #621F16",
"z  c #5E241A",
"x  c #5D2117",
"c  c #65251B",
"v  c #6B2217",
"b  c #71261A",
"n  c #7B291D",
"m  c #42392C",
"M  c #413E3E",
"N  c #6D2E21",
"B  c #713C2B",
"V  c #544730",
"C  c #5B4C3A",
"Z  c #6D5A3B",
"A  c #0F3140",
"S  c #4A4644",
"D  c #4C4949",
"F  c #5D5A5A",
"G  c #685640",
"H  c #6F5C47",
"J  c #6E5D4A",
"K  c #666262",
"L  c #736E6E",
"P  c #757172",
"I  c #7A7575",
"U  c #862D1F",
"Y  c #8F2E1F",
"T  c #812519",
"R  c #982B1C",
"E  c #A42D1D",
"W  c #862E20",
"Q  c #892E20",
"!  c #9D3221",
"~  c #AB3622",
"^  c #BC3924",
"/  c #C53B24",
"(  c #C83C25",
")  c #9A4D36",
"_  c #B7432C",
"`  c #886E48",
"'  c #836B4C",
"]  c #9E6E4F",
"[  c #90754E",
"{  c #8B7459",
"}  c #937852",
"|  c #B16648",
" . c #837E7E",
".. c #CE6041",
"X. c #CA6948",
"o. c #CE7450",
"O. c #D17652",
"+. c #D27954",
"@. c #9D8059",
"#. c #A3855A",
"$. c #9D8263",
"%. c #9C8669",
"&. c #B78C65",
"*. c #BA9369",
"=. c #B89569",
"-. c #BE9D75",
";. c #D39469",
":. c #C29E74",
">. c #C9A375",
",. c #CCA67A",
"<. c #CBA67A",
"1. c #D0A777",
"2. c #D1A678",
"3. c #D3AB7B",
"4. c #DBB17F",
"5. c #8B8686",
"6. c #8F8A8A",
"7. c #918C8B",
"8. c #969090",
"9. c #AB9880",
"0. c #AB9681",
"q. c #A49D9D",
"w. c #A19792",
"e. c #A7A0A0",
"r. c #A8A1A1",
"t. c #B1AAAA",
"y. c #BDB5B5",
"u. c #C0A486",
"i. c #D4AF84",
"p. c #DAB281",
"a. c #D6B084",
"s. c #C8AE92",
"d. c #DBBD9D",
"f. c #D6BFA8",
"g. c #DBBEA0",
"h. c #C4BBBB",
"j. c #DFC09E",
"k. c #DFC5AD",
"l. c #DFC7B1",
"z. c #E1CAB4",
"x. c #E2CDBC",
"c. c #D5CDCE",
"v. c #D9D0D0",
"b. c #E5D6CE",
"n. c #E8D8CF",
"m. c #E0D6D6",
"M. c #E7DAD5",
"N. c #E9DBD5",
"B. c #E5DBDB",
"V. c #EBDFDC",
"C. c #EBE0DF",
"Z. c #ECE2E2",
"A. c #EFE6E8",
"S. c #F0E6E6",
"D. c #F0E7E8",
"F. c #F3E9EA",
"G. c #FBF1F1",
"H. c None",
/* pixels */
"H.H.H.H.H.H.H.H.H.H.H.H.H.H.H.H.H.H.H.H.H.H.H.H.H.H.H.Z.Z.Z.Z.C.Z.Z.Z.H.H.H.H.H.H.H.H.H.H.H.H.H.H.H.H.H.H.H.H.H.H.H.H.H.H.H.H.H.",
"H.H.H.H.H.H.H.H.H.H.H.H.H.H.H.H.H.H.H.H.H.H.H.H.H.H.H.A.S.S.A.S.Z.Z.Z.H.H.H.H.H.H.H.H.H.H.H.H.H.H.H.H.H.H.H.H.H.H.H.H.H.H.H.H.H.",
"H.H.H.H.H.H.H.H.H.H.H.H.H.H.H.H.H.H.H.H.H.H.H.H.H.H.Z.Z.C.Z.C.C.Z.Z.Z.Z.H.H.H.H.H.H.H.H.H.H.H.H.H.H.H.H.H.H.H.H.H.H.H.H.H.H.H.H.",
"H.H.H.H.H.H.H.H.H.H.H.H.H.H.H.H.H.H.H.H.H.H.H.H.H.H.Z.y.7.5.5.5.r.m.F.Z.Z.H.H.H.H.H.H.H.H.H.H.H.H.H.H.H.H.H.H.H.H.H.H.H.H.H.H.H.",
"H.H.H.H.H.H.H.H.H.H.H.H.H.H.H.H.H.H.H.H.H.H.H.H.H.H.v. .u t y t F h.A.Z.Z.H.H.H.H.H.H.H.H.H.H.H.H.H.H.H.H.H.H.H.H.H.H.H.H.H.H.H.",
"H.H.H.H.H.H.H.H.H.H.H.H.H.H.H.H.H.H.H.H.H.H.H.H.H.S P I I I I I P P q.B.G.H.H.H.H.H.H.H.H.H.H.H.H.H.H.H.H.H.H.H.H.H.H.H.H.H.H.H.",
"H.H.H.H.H.H.H.H.H.H.H.H.H.H.H.H.H.H.H.H.H.H.H.H.t e a 7.m.Z.B.C.t.D K h.B.H.H.H.H.H.H.H.H.H.H.H.H.H.H.H.H.H.H.H.H.H.H.H.H.H.H.H.",
"H.H.H.H.H.H.H.H.H.H.H.H.H.H.H.H.H.H.H.H.H.H.H.H.7.7.7.h.S.F.F.F.v.q.I K F H.H.H.H.H.H.H.H.H.H.H.H.H.H.H.H.H.H.H.H.H.H.H.H.H.H.H.",
"H.H.H.H.H.H.H.H.H.H.H.H.H.H.H.H.H.H.H.H.H.H.H.H.Z.Z.Z.Z.Z.Z.Z.Z.S.S.e.S M H.H.H.H.H.H.H.H.H.H.H.H.H.H.H.H.H.H.H.H.H.H.H.H.H.H.H.",
"H.H.H.H.H.H.H.H.H.H.H.H.H.H.H.H.H.H.H.H.H.H.Z.Z.S.D.D.Z.Z.Z.Z.Z.Z.S.c.t.h.B.H.H.H.H.H.H.H.H.H.H.H.H.H.H.H.H.H.H.H.H.H.H.H.H.H.H.",
"H.H.H.H.H.H.H.H.H.H.H.H.H.H.H.H.H.H.H.H.H.H.A.Z.C.C.b.M.C.M.b.C.V.n.N.Z.S.Z.H.H.H.H.H.H.H.H.H.H.H.H.H.H.H.H.H.H.H.H.H.H.H.H.H.H.",
"H.H.H.H.H.H.H.H.H.H.H.H.H.H.H.H.H.H.H.H.H.H.H.H.Z.l.d.x.M.k.d.b.n.d.k.V.D.H.H.H.H.H.H.H.H.H.H.H.H.H.H.H.H.H.H.H.H.H.H.H.H.H.H.H.",
"H.H.H.H.H.H.H.H.H.H.H.H.H.H.H.H.H.H.H.H.H.H.H.H.S.l.i.l.v.s.-.k.k.i.d.C.F.H.H.H.H.H.H.H.H.H.H.H.H.H.H.H.H.H.H.H.H.H.H.H.H.H.H.H.",
"H.H.H.H.H.H.H.H.H.H.H.H.H.H.H.H.H.H.H.H.H.H.H.H.C.l.i.z.c.-.@.-.i.3.d.N.A.H.H.H.H.H.H.H.H.H.H.H.H.H.H.H.H.H.H.H.H.H.H.H.H.H.H.H.",
"H.H.H.H.H.H.H.H.H.H.H.H.H.H.H.H.H.H.H.H.H.H.H.H.5.-.3.k.k.%.` =.2.3.u.w.P H.H.H.H.H.H.H.H.H.H.H.H.H.H.H.H.H.H.H.H.H.H.H.H.H.H.H.",
"H.H.H.H.H.H.H.H.H.H.H.H.H.H.H.H.H.H.H.H.H.H.H.H.6 H >.4.1.@.[ =.4.3.$.S t @ H.H.H.H.H.H.H.H.H.H.H.H.H.H.H.H.H.H.H.H.H.H.H.H.H.H.",
"H.H.H.H.H.H.H.H.H.H.H.H.H.H.H.H.H.H.H.H.H.H.H.@ ; J ,.p.2.*.&.>.4.p.$.m e t H.H.H.H.H.H.H.H.H.H.H.H.H.H.H.H.H.H.H.H.H.H.H.H.H.H.",
"H.H.H.H.H.H.H.H.H.H.H.H.H.H.H.H.H.H.H.H.H.H.@ $ y J =.>.,.>.>.>.>.:.{ p t y H.H.H.H.H.H.H.H.H.H.H.H.H.H.H.H.H.H.H.H.H.H.H.H.H.H.",
"H.H.H.H.H.H.H.H.H.H.H.H.H.H.H.H.H.H.H.H.H.O @ $ & i C ` #.#.#.#.[ G m e & 6 H.H.H.H.H.H.H.H.H.H.H.H.H.H.H.H.H.H.H.H.H.H.H.H.H.H.",
"H.H.H.H.H.H.H.H.H.H.H.H.H.H.H.H.H.H.H.H.- - # # = o @ m Z Z Z Z V ; o # = = < H.H.H.H.H.H.H.H.H.H.H.H.H.H.H.H.H.H.H.H.H.H.H.H.H.",
"H.H.H.H.H.H.H.H.H.H.H.H.H.H.H.H.H.H.H.H.c c g f f : @ & r 2 r r 2 @ # 1 f g c U H.H.H.H.H.H.H.H.H.H.H.H.H.H.H.H.H.H.H.H.H.H.H.H.",
"H.H.H.H.H.H.H.H.H.H.H.H.H.H.H.H.H.H.H.H.Q n c j j f = = = = = # # = > h j k b U Q H.H.H.H.H.H.H.H.H.H.H.H.H.H.H.H.H.H.H.H.H.H.H.",
"H.H.H.H.H.H.H.H.H.H.H.H.H.H.H.H.H.H.H.W Y n k j j h g g g g g g g g g j j j b W Q W H.H.H.H.H.H.H.H.H.H.H.H.H.H.H.H.H.H.H.H.H.H.",
"H.H.H.H.H.H.H.H.H.H.H.H.H.H.H.H.H.H.W W W n k j j j k j j j k j j k j k j j b W W W H.H.H.H.H.H.H.H.H.H.H.H.H.H.H.H.H.H.H.H.H.H.",
"H.H.H.H.H.H.H.H.H.H.H.H.H.H.H.H.H.H.W Q Y n k j j j j j x j j j j j j j j j b W Q Q H.H.H.H.H.H.H.H.H.H.H.H.H.H.H.H.H.H.H.H.H.H.",
"H.H.H.H.H.H.H.H.H.H.H.H.H.H.H.H.H.H.E R Y b k j j j j j j j j j j j j j j k T E E E H.H.H.H.H.H.H.H.H.H.H.H.H.H.H.H.H.H.H.H.H.H.",
"H.H.H.H.H.H.H.H.H.H.H.H.H.H.H.H.H.H.( / ! n x j j j j j j j j j k j j k h k Y / ( / H.H.H.H.H.H.H.H.H.H.H.H.H.H.H.H.H.H.H.H.H.H.",
"H.H.H.H.H.H.H.H.H.H.H.H.H.H.H.H.H.H.+.X._ R l j j j k j j k j j j j j j j x ) O.O.O.H.H.H.H.H.H.H.H.H.H.H.H.H.H.H.H.H.H.H.H.H.H.",
"H.H.H.H.H.H.H.H.H.H.H.H.H.H.H.H.H.H.3.;...~ v j j j j j j k j j j j k j h z ] 2.3.2.H.H.H.H.H.H.H.H.H.H.H.H.H.H.H.H.H.H.H.H.H.H.",
"H.H.H.H.H.H.H.H.H.H.H.H.H.H.H.H.H.H.3.1.;.| N h j j j j j j j j j j j j d H.*.3.3.3.H.H.H.H.H.H.H.H.H.H.H.H.H.H.H.H.H.H.H.H.H.H.",
"H.H.H.H.H.H.H.H.H.H.H.H.H.H.H.H.H.H.3.3.3.&.B d j j j j j j j j j j j j s H.p.3.3.3.H.H.H.H.H.H.H.H.H.H.H.H.H.H.H.H.H.H.H.H.H.H.",
"H.H.H.H.H.H.H.H.H.H.H.H.H.H.H.H.H.H.3.3.3.<.H.H.j j j j j j j k j j j j d H.a.3.3.3.H.H.H.H.H.H.H.H.H.H.H.H.H.H.H.H.H.H.H.H.H.H.",
"H.H.H.H.H.H.H.H.H.H.H.H.H.H.H.H.H.H.3.2.3.3.H.H.j j j j j j j j j j g g * H.p.3.3.2.H.H.H.H.H.H.H.H.H.H.H.H.H.H.H.H.H.H.H.H.H.H.",
"H.H.H.H.H.H.H.H.H.H.H.H.H.H.H.H.H.H.3.3.3.i.H.H.j j j j j j k j j j f - X H.p.3.3.3.H.H.H.H.H.H.H.H.H.H.H.H.H.H.H.H.H.H.H.H.H.H.",
"H.H.H.H.H.H.H.H.H.H.H.H.H.H.H.H.H.H.3.3.3.3.H.H.1 g j j k j j j k j 1 @ . H.H.3.3.3.H.H.H.H.H.H.H.H.H.H.H.H.H.H.H.H.H.H.H.H.H.H.",
"H.H.H.H.H.H.H.H.H.H.H.H.H.H.H.H.H.H.3.3.2.4.H.H.@ < j j j j j j j j 1 # O H.H.H.3.3.H.H.H.H.H.H.H.H.H.H.H.H.H.H.H.H.H.H.H.H.H.H.",
"H.H.H.H.H.H.H.H.H.H.H.H.H.H.H.H.H.H.H.3.2.3.H.H.3 ; > , > > > , > > : 3 4 H.H.H.H.H.H.H.H.H.H.H.H.H.H.H.H.H.H.H.H.H.H.H.H.H.H.H.",
"H.H.H.H.H.H.H.H.H.H.H.H.H.H.H.H.H.H.H.H.3.4.H.H.0 9 $ $ $ # @ $ @ # 6 0 A H.H.H.H.H.H.H.H.H.H.H.H.H.H.H.H.H.H.H.H.H.H.H.H.H.H.H.",
"H.H.H.H.H.H.H.H.H.H.H.H.H.H.H.H.H.H.H.H.H.H.H.H.A 0 5 5 5 5 5 4 5 5 7 w A H.H.H.H.H.H.H.H.H.H.H.H.H.H.H.H.H.H.H.H.H.H.H.H.H.H.H.",
"H.H.H.H.H.H.H.H.H.H.H.H.H.H.H.H.H.H.H.H.H.H.H.H.0 A A 0 w w A w w w w w A H.H.H.H.H.H.H.H.H.H.H.H.H.H.H.H.H.H.H.H.H.H.H.H.H.H.H.",
"H.H.H.H.H.H.H.H.H.H.H.H.H.H.H.H.H.H.H.H.H.H.H.H.w q q A A A q q A A w w w H.H.H.H.H.H.H.H.H.H.H.H.H.H.H.H.H.H.H.H.H.H.H.H.H.H.H.",
"H.H.H.H.H.H.H.H.H.H.H.H.H.H.H.H.H.H.H.H.H.H.H.H.w q q q q q w w w A A w w H.H.H.H.H.H.H.H.H.H.H.H.H.H.H.H.H.H.H.H.H.H.H.H.H.H.H.",
"H.H.H.H.H.H.H.H.H.H.H.H.H.H.H.H.H.H.H.H.H.H.H.H.w q q q q q w w w w w w w A H.H.H.H.H.H.H.H.H.H.H.H.H.H.H.H.H.H.H.H.H.H.H.H.H.H.",
"H.H.H.H.H.H.H.H.H.H.H.H.H.H.H.H.H.H.H.H.H.H.H.H.w 0 9 9 9 w w w w w A w w w H.H.H.H.H.H.H.H.H.H.H.H.H.H.H.H.H.H.H.H.H.H.H.H.H.H.",
"H.H.H.H.H.H.H.H.H.H.H.H.H.H.H.H.H.H.H.H.H.H.H.H.H.3 % $ % 9 q q w w w w w w H.H.H.H.H.H.H.H.H.H.H.H.H.H.H.H.H.H.H.H.H.H.H.H.H.H.",
"H.H.H.H.H.H.H.H.H.H.H.H.H.H.H.H.H.H.H.H.H.H.H.H.H.H.X X @ 4 8 q w w w w w w H.H.H.H.H.H.H.H.H.H.H.H.H.H.H.H.H.H.H.H.H.H.H.H.H.H.",
"H.H.H.H.H.H.H.H.H.H.H.H.H.H.H.H.H.H.H.H.H.H.H.H.H.H.H.H.H.H.H.8 w w A w w q H.H.H.H.H.H.H.H.H.H.H.H.H.H.H.H.H.H.H.H.H.H.H.H.H.H.",
"H.H.H.H.H.H.H.H.H.H.H.H.H.H.H.H.H.H.H.H.H.H.H.H.H.H.H.H.H.H.H.8 w w w w q 7 H.H.H.H.H.H.H.H.H.H.H.H.H.H.H.H.H.H.H.H.H.H.H.H.H.H.",
"H.H.H.H.H.H.H.H.H.H.H.H.H.H.H.H.H.H.H.H.H.H.H.H.H.H.H.H.H.H.H.8 w w A q 7 H.H.H.H.H.H.H.H.H.H.H.H.H.H.H.H.H.H.H.H.H.H.H.H.H.H.H.",
"H.H.H.H.H.H.H.H.H.H.H.H.H.H.H.H.H.H.H.H.H.H.H.H.H.H.H.H.H.H.H.8 A A A A 7 H.H.H.H.H.H.H.H.H.H.H.H.H.H.H.H.H.H.H.H.H.H.H.H.H.H.H.",
"H.H.H.H.H.H.H.H.H.H.H.H.H.H.H.H.H.H.H.H.H.H.H.H.H.H.H.H.H.H.H.7 0 0 8 0 5 H.H.H.H.H.H.H.H.H.H.H.H.H.H.H.H.H.H.H.H.H.H.H.H.H.H.H.",
"H.H.H.H.H.H.H.H.H.H.H.H.H.H.H.H.H.H.H.H.H.H.H.H.H.H.H.H.H.H.H.+ 3 3 3 3 + H.H.H.H.H.H.H.H.H.H.H.H.H.H.H.H.H.H.H.H.H.H.H.H.H.H.H.",
"H.H.H.H.H.H.H.H.H.H.H.H.H.H.H.H.H.H.H.H.H.H.H.H.H.H.H.H.H.H.H.@ @ @ @ @   H.H.H.H.H.H.H.H.H.H.H.H.H.H.H.H.H.H.H.H.H.H.H.H.H.H.H.",
"H.H.H.H.H.H.H.H.H.H.H.H.H.H.H.H.H.H.H.H.H.H.H.H.H.H.H.H.H.H.H.H.  @ @ @ @ H.H.H.H.H.H.H.H.H.H.H.H.H.H.H.H.H.H.H.H.H.H.H.H.H.H.H.",
"H.H.H.H.H.H.H.H.H.H.H.H.H.H.H.H.H.H.H.H.H.H.H.H.H.H.H.H.H.H.H.H.H.@ @ o   H.H.H.H.H.H.H.H.H.H.H.H.H.H.H.H.H.H.H.H.H.H.H.H.H.H.H.",
"H.H.H.H.H.H.H.H.H.H.H.H.H.H.H.H.H.H.H.H.H.H.H.H.H.H.H.H.H.H.H.H.H.H.H.H.H.H.H.H.H.H.H.H.H.H.H.H.H.H.H.H.H.H.H.H.H.H.H.H.H.H.H.H.",
"H.H.H.H.H.H.H.H.H.H.H.H.H.H.H.H.H.H.H.H.H.H.H.H.H.H.H.H.H.H.H.H.H.H.H.H.H.H.H.H.H.H.H.H.H.H.H.H.H.H.H.H.H.H.H.H.H.H.H.H.H.H.H.H.",
"H.H.H.H.H.H.H.H.H.H.H.H.H.H.H.H.H.H.H.H.H.H.H.H.H.H.H.H.H.H.H.H.H.H.H.H.H.H.H.H.H.H.H.H.H.H.H.H.H.H.H.H.H.H.H.H.H.H.H.H.H.H.H.H.",
"H.H.H.H.H.H.H.H.H.H.H.H.H.H.H.H.H.H.H.H.H.H.H.H.H.H.H.H.H.H.H.H.H.H.H.H.H.H.H.H.H.H.H.H.H.H.H.H.H.H.H.H.H.H.H.H.H.H.H.H.H.H.H.H.",
"H.H.H.H.H.H.H.H.H.H.H.H.H.H.H.H.H.H.H.H.H.H.H.H.H.H.H.H.H.H.H.H.H.H.H.H.H.H.H.H.H.H.H.H.H.H.H.H.H.H.H.H.H.H.H.H.H.H.H.H.H.H.H.H.",
"H.H.H.H.H.H.H.H.H.H.H.H.H.H.H.H.H.H.H.H.H.H.H.H.H.H.H.H.H.H.H.H.H.H.H.H.H.H.H.H.H.H.H.H.H.H.H.H.H.H.H.H.H.H.H.H.H.H.H.H.H.H.H.H.",
"H.H.H.H.H.H.H.H.H.H.H.H.H.H.H.H.H.H.H.H.H.H.H.H.H.H.H.H.H.H.H.H.H.H.H.H.H.H.H.H.H.H.H.H.H.H.H.H.H.H.H.H.H.H.H.H.H.H.H.H.H.H.H.H.",
"H.H.H.H.H.H.H.H.H.H.H.H.H.H.H.H.H.H.H.H.H.H.H.H.H.H.H.H.H.H.H.H.H.H.H.H.H.H.H.H.H.H.H.H.H.H.H.H.H.H.H.H.H.H.H.H.H.H.H.H.H.H.H.H.",
"H.H.H.H.H.H.H.H.H.H.H.H.H.H.H.H.H.H.H.H.H.H.H.H.H.H.H.H.H.H.H.H.H.H.H.H.H.H.H.H.H.H.H.H.H.H.H.H.H.H.H.H.H.H.H.H.H.H.H.H.H.H.H.H."
};
