/* XPM */
static char *result[] = {
/* columns rows colors chars-per-pixel */
"64 64 174 2 ",
"   c #0D0D0D",
".  c #140F0F",
"X  c #10100F",
"o  c #0C1316",
"O  c #131313",
"+  c #1B1413",
"@  c #151A1B",
"#  c #1B1818",
"$  c #3F140F",
"%  c #251413",
"&  c #2B1512",
"*  c #2C1B17",
"=  c #351511",
"-  c #3A1611",
";  c #371A16",
":  c #3D1A14",
">  c #25231C",
",  c #2D221A",
"<  c #0E1E25",
"1  c #121D22",
"2  c #0E232B",
"3  c #12232B",
"4  c #182428",
"5  c #0E2A36",
"6  c #0C2E3C",
"7  c #102E3B",
"8  c #102C37",
"9  c #0F303E",
"0  c #10313F",
"q  c #1B353E",
"w  c #252424",
"e  c #2B2A2A",
"r  c #372921",
"t  c #2A3434",
"y  c #4E150F",
"u  c #451611",
"i  c #421B15",
"p  c #4D1A13",
"a  c #521710",
"s  c #551C14",
"d  c #5B1D14",
"f  c #611F16",
"g  c #482119",
"h  c #5D241A",
"j  c #55241A",
"k  c #642016",
"l  c #6E2419",
"z  c #652218",
"x  c #772317",
"c  c #742519",
"v  c #7A271A",
"b  c #7D281B",
"n  c #502B21",
"m  c #423024",
"M  c #543C2F",
"N  c #54442D",
"B  c #544737",
"V  c #564938",
"C  c #5F4D3A",
"Z  c #68472F",
"A  c #784330",
"S  c #625135",
"D  c #0F3140",
"F  c #133340",
"G  c #1C3842",
"H  c #384A4B",
"J  c #404F4D",
"K  c #464647",
"L  c #514E4E",
"P  c #42504E",
"I  c #5E5342",
"U  c #465350",
"Y  c #555252",
"T  c #5C5A5B",
"R  c #625F5F",
"E  c #675A47",
"W  c #5A6057",
"Q  c #7D674C",
"!  c #7C6E57",
"~  c #615F60",
"^  c #666262",
"/  c #696565",
"(  c #706C6C",
")  c #7B7367",
"_  c #7C7777",
"`  c #83291B",
"'  c #8A281A",
"]  c #9B2A1A",
"[  c #A72D1C",
"{  c #AC2E1C",
"}  c #B22D1B",
"|  c #B2301D",
" . c #A23522",
".. c #C23D26",
"X. c #87563E",
"o. c #B5442C",
"O. c #A0533A",
"+. c #CA462C",
"@. c #D24D31",
"#. c #8D5C43",
"$. c #905E44",
"%. c #A65D41",
"&. c #866C4B",
"*. c #9D6D4F",
"=. c #90694D",
"-. c #8C714B",
";. c #8F7652",
":. c #9A7D55",
">. c #BA7D59",
",. c #907F67",
"<. c #827D7D",
"1. c #B0825E",
"2. c #A6865A",
"3. c #908166",
"4. c #AD8D62",
"5. c #A18765",
"6. c #B28661",
"7. c #AD926F",
"8. c #B6956A",
"9. c #BB986E",
"0. c #B9946C",
"q. c #A2917C",
"w. c #BA9B73",
"e. c #B29671",
"r. c #CC865F",
"t. c #D2825B",
"y. c #C49E6F",
"u. c #DA9368",
"i. c #C59F70",
"p. c #C6A174",
"a. c #CBA375",
"s. c #CDA779",
"d. c #CFA879",
"f. c #C7A47B",
"g. c #D3AB7C",
"h. c #D8AE7D",
"j. c #D2A774",
"k. c #868181",
"l. c #888383",
"z. c #948E8E",
"x. c #9E9898",
"c. c #BCAC9C",
"v. c #AEA7A7",
"b. c #B5ADAD",
"n. c #B9B1B1",
"m. c #C4A888",
"M. c #D4AE82",
"N. c #DCB482",
"B. c #C1AA94",
"V. c #DBBD9F",
"C. c #D8B792",
"Z. c #E2B480",
"A. c #D0BBA7",
"S. c #C3BBBB",
"D. c #D4C0AC",
"F. c #D5C5B9",
"G. c #E0C5AA",
"H. c #E1C9B3",
"J. c #E2CCBA",
"K. c #E6D0BD",
"L. c #D7CECE",
"P. c #DCD2D2",
"I. c #E5D1C2",
"U. c #E6D9D3",
"Y. c #E9DAD3",
"T. c #E5DBDB",
"R. c #E8DEDE",
"E. c #E0D6D6",
"W. c #EBE0DF",
"Q. c #F0E3DF",
"!. c #ECE2E2",
"~. c #F1E7E7",
"^. c #F4EAEA",
"/. c None",
/* pixels */
"/./././././././././././././././././././././././././././././././././././././././././././././././././././././././././././././././.",
"/./././././././././././././././././././././././././././././././././././././././././././././././././././././././././././././././.",
"/././././././././././././././././././././././././././././././././././././.!././././././././././././././././././././././././././.",
"/././././././././././././././././././././././././././././././././././././.!.!./././././././././././././././././././././././././.",
"/././././././././././././././././././././././././././././././././.!.!././.!.!.!././././././././././././././././././././././././.",
"/././././././././././././././././././././././././././.!.!.^.S./.^ P.^.!.!.!.!.!.!./././././././././././././././././././././././.",
"/./././././././././././././././././././././././././.!.!.!.~.S.Y L b.T.W.!.!.!.!.!.!././././././././././././././././././././././.",
"/./././././././././././././././././././././././.!.!.!.!.!.~.P.v.<./ z.T.^.!.!.!.!.!././././././././././././././././././././././.",
"/./././././././././././././././././././././././.!.!.!.!.!.!.!.~.n.Y R n.P.!.!.!.!.!././././././././././././././././././././././.",
"/./././././././././././././././././././././.!.!.!.!.!.!.!.!.!.~.P.b.<.Y z.!.^.!.!.!.!.!././././././././././././././././././././.",
"/./././././././././././././././././././././.!.!.!.!.!.!.!.!.!.!.~.~.b.Y ( b.L.!.!.!.!.!././././././././././././././././././././.",
"/./././././././././././././././././././././.!.!.!.!.!.!.!.!.!.!.!.!.T.n._ L x.R././././././././././././././././././././././././.",
"/./././././././././././././././././././././.!.!.!.U.I.Y.!.!.!.!.!.!.~.!.k.w k.R././././././././././././././././././././././././.",
"/./././././././././././././././././././././././.!.H.C.J.W.!.!.!.!.!.~.R.<.e l.R././././././././././././././././././././././././.",
"/./././././././././././././././././././././././.!.A.8.m.H.J.H.H.I.Y.~.R.<.w / R././././././././././././././././././././././././.",
"/./././././././././././././././././././././././.R.c.;.4.M.M.M.h.V.U.^.!.l.w /./././././././././././././././././././././././././.",
"/././././././././././././././././././././././././.q.&.2.a.j.g.A.I.Q.^.~.b./././././././././././././././././././././././././././.",
"/./././././././././././././././././././././././././.-.4.g.g.C.K.U.P.L.L.S./././././././././././././././././././././././././././.",
"/./././././././././././././././././././././././././.8.y.M.G.K.H.B.) R R K @   O @ O /./././././././././././././././././././././.",
"/./././././././././././././././././././././././././.p.y.f.D.F.m.&.r . + + % @ O O O /./././././././././././././././././././././.",
"/./././././././././././././././././././././././././.:.:.2.5.3.I m i u - u - % O O O O O /./././././././././././././././././././.",
"/././././././././././././././././././././././././.Z S S C S N , & p d s d s : % + O O O /./././././././././././././././././././.",
"/./././././././././././././././././././././././.v j > > > > , : p s s s s s s i % O O @ O /././././././././././././././././././.",
"/././././././././././././././././././././././.c l s & % % % & p d s s s d f d p & O O O O @ /./././././././././././././././././.",
"/./././././././././././././././././././././.b c d s p p p p p s s s s d z c f s & O O @ O O /./././././././././././././././././.",
"/./././././././././././././././././././././.v l d s s s s d d s s s d f c v c d & O O O O O /./././././././././././././././././.",
"/./././././././././././././././././././././.b c d s s s d s s s s s f x b b b l ; O X O O O O /././././././././././././././././.",
"/./././././././././././././././././././././.[ ' d s s s s s s s s s f x b b b l ; O O @ O O O # /./././././././././././././././.",
"/./././././././././././././././././././././.+. .k s s s s s s d s s f ` ` ` ' v : O O O + O O O /./././././././././././././././.",
"/./././././././././././././././././././././.t.%.z y s s s s s s a s x [ | { | ] i O o O O O O O /./././././././././././././././.",
"/./././././././././././././././././././././.g.6.A h s s s s d s s s x { ..+.@.o.j O O O @ O O @ /./././././././././././././././.",
"/./././././././././././././././././././././.g.a.6.X.h s s s s s s s f x $.r.u.>.M O X O O O O @ /./././././././././././././././.",
"/./././././././././././././././././././././.g.h.g.*.h a s s s s s s a s $.f.N.w.B X o O O O @ /././././././././././././././././.",
"/./././././././././././././././././././././.g.g.g.*.h y d s s s d s a d $.f.N.w.B O X O O @ /./././././././././././././././././.",
"/./././././././././././././././././././././.g.g.d.=.g u s d s s s s a s #.a.N.9.B X O O O O /./././././././././././././././././.",
"/./././././././././././././././././././././.g.h.g.Q * = s s s s s s a d $.j.h.9.B O O O O O /./././././././././././././././././.",
"/././././././././././././././././././././././.h.d.! 4 % - = = - = = n X.1.s.h.9.B O O O @ /././././././././././././././././././.",
"/./././././././././././././././././././././././.d.) q 2 @ @ + @ O # C 0.g.g.h.9.B O X O /./././././././././././././././././././.",
"/././././././././././././././././././././././././.W 0 5 2 3 2 2 t E 5.s.g.d.g.a.Q /././././././././././././././././././././././.",
"/././././././././././././././././././././././././.0 0 0 6 9 6 6 J 7.h.g.g.g.g.g././././././././././././././././././././././././.",
"/./././././././././././././././././././././././.6 6 6 9 D D D 6 U w.Z.h.h.h.h./././././././././././././././././././././././././.",
"/./././././././././././././././././././././././.0 0 F D 0 D 9 6 H 3.e.8.7.7././././././././././././././././././././././././././.",
"/./././././././././././././././././././././././.0 0 0 0 0 0 6 6 G H H P H P /./././././././././././././././././././././././././.",
"/./././././././././././././././././././././././.0 0 0 0 0 0 F F D 6 6 D 6 6 6 /././././././././././././././././././././././././.",
"/./././././././././././././././././././././././.D 0 0 0 0 D F 9 6 D D 6 D 9 6 0 /./././././././././././././././././././././././.",
"/./././././././././././././././././././././././.9 F 0 0 0 9 9 F D D 6 D 9 F 0 0 /./././././././././././././././././././././././.",
"/./././././././././././././././././././././././././.0 0 0 0 9 9 6 F D F F D 9 D /./././././././././././././././././././././././.",
"/./././././././././././././././././././././././././.D D D 0 9 5 5 7 D 7 6 F F 9 /./././././././././././././././././././././././.",
"/./././././././././././././././././././././././././.7 7 0 0 5 /./.5 9 D 9 F D 9 /./././././././././././././././././././././././.",
"/././././././././././././././././././././././././.< 3 1 3 5 D /././.5 D D D D F /./././././././././././././././././././././././.",
"/././././././././././././././././././././././././.. O O O 3 5 /./././.5 6 7 5 5 < /././././././././././././././././././././././.",
"/./././././././././././././././././././././././.X O O O O @ 1 /././././.1 1 1 @ o /././././././././././././././././././././././.",
"/././././././././././././././././././././././.  O O @ O . O O /././././.. O O O   /././././././././././././././././././././././.",
"/././././././././././././././././././././././.  X @ O O O . /././././.O O O O .   /././././././././././././././././././././././.",
"/./././././././././././././././././././././././.X O O O X /././././.  O O O @ O   /././././././././././././././././././././././.",
"/./././././././././././././././././././././././././././././././././.  O O O O O   /././././././././././././././././././././././.",
"/././././././././././././././././././././././././././././././././././.O O O X   /./././././././././././././././././././././././.",
"/./././././././././././././././././././././././././././././././././././././././././././././././././././././././././././././././.",
"/./././././././././././././././././././././././././././././././././././././././././././././././././././././././././././././././.",
"/./././././././././././././././././././././././././././././././././././././././././././././././././././././././././././././././.",
"/./././././././././././././././././././././././././././././././././././././././././././././././././././././././././././././././.",
"/./././././././././././././././././././././././././././././././././././././././././././././././././././././././././././././././.",
"/./././././././././././././././././././././././././././././././././././././././././././././././././././././././././././././././.",
"/./././././././././././././././././././././././././././././././././././././././././././././././././././././././././././././././."
};
