/* XPM */
static char *result[] = {
/* columns rows colors chars-per-pixel */
"64 64 209 2 ",
"   c #180F0F",
".  c #131414",
"X  c #1B1413",
"o  c #17181A",
"O  c #1C1B1B",
"+  c #3F140F",
"@  c #251413",
"#  c #2B1512",
"$  c #2C1B17",
"%  c #351511",
"&  c #3A1611",
"*  c #371A16",
"=  c none",
"-  c #25231C",
";  c #2D231B",
":  c #0E1E26",
">  c #121E24",
",  c #0E232B",
"<  c #16242A",
"1  c #0D2834",
"2  c #0B2E3D",
"3  c #182C34",
"4  c #112E3B",
"5  c #0E303E",
"6  c #10313F",
"7  c #262625",
"8  c #282727",
"9  c #2A2A2A",
"0  c #372921",
"q  c #293234",
"w  c #343333",
"e  c #373A3B",
"r  c #4E150F",
"t  c #451611",
"y  c #421B15",
"u  c #4D1A13",
"i  c #521710",
"p  c #551C14",
"a  c #5A1D14",
"s  c #611F16",
"d  c #482119",
"f  c #56231A",
"g  c #5D241A",
"h  c #642016",
"j  c #682116",
"k  c #612219",
"l  c #6D2419",
"z  c #772317",
"x  c #742519",
"c  c #7A271A",
"v  c #7D281B",
"b  c #502B21",
"n  c #423024",
"m  c #543C2F",
"M  c #703329",
"N  c #54442D",
"B  c #544737",
"V  c #5A4B39",
"C  c #784330",
"Z  c #625135",
"A  c #0F3240",
"S  c #133442",
"D  c #1D3A46",
"F  c #1E3D4A",
"G  c #253E49",
"H  c #384A4B",
"J  c #274653",
"K  c #2C4956",
"L  c #304A54",
"P  c #314C58",
"I  c #38515C",
"U  c #3B5762",
"Y  c #434343",
"T  c #404F4D",
"R  c #4B4B4B",
"E  c #514E4E",
"W  c #42504E",
"Q  c #495754",
"!  c #545353",
"~  c #595656",
"^  c #5D5C5C",
"/  c #675A47",
"(  c #625F5F",
")  c #7E6B52",
"_  c #535E63",
"`  c #4E656F",
"'  c #50656E",
"]  c #656464",
"[  c #6C6D6D",
"{  c #7B7467",
"}  c #767272",
"|  c #87281A",
" . c none",
".. c #AA2E1C",
"X. c #B22D1B",
"o. c #A23522",
"O. c #C23D26",
"+. c #87563E",
"@. c #AB4C33",
"#. c #CA492F",
"$. c #D24D31",
"%. c #8D5C43",
"&. c #945546",
"*. c #AF5944",
"=. c #886F4E",
"-. c #986B4E",
";. c #8F7753",
":. c #977C55",
">. c #A2665D",
",. c #BA7D59",
"<. c #907F67",
"1. c #827D7D",
"2. c #D46652",
"3. c #A3865D",
"4. c #B0825E",
"5. c #908166",
"6. c #A78A63",
"7. c #B28661",
"8. c #AD926F",
"9. c #B7946C",
"0. c #BB986E",
"q. c #B1827A",
"w. c #B29875",
"e. c #BB9B72",
"r. c #CC865F",
"t. c #C49E6F",
"y. c #C59F70",
"u. c #DB9772",
"i. c #CBA375",
"p. c #CBA67A",
"a. c #CCA77B",
"s. c #D2A774",
"d. c #D3AB7C",
"f. c #D8AE7D",
"g. c #6C818A",
"h. c #778B93",
"j. c #858484",
"k. c #878686",
"l. c #8B8B8B",
"z. c #948E8E",
"x. c #8F938D",
"c. c #858D90",
"v. c #869399",
"b. c #8C989E",
"n. c #959596",
"m. c #919A9E",
"M. c #9C9B9B",
"N. c #A99989",
"B. c #BCAC9C",
"V. c #96A2A7",
"C. c #A5A5A5",
"Z. c #ACA5A5",
"A. c #AAA9A9",
"S. c #B6AEAE",
"D. c #BCB0A0",
"F. c #ABB4B6",
"G. c #ADB9BD",
"H. c #B4B4B4",
"J. c #B9B1B1",
"K. c #B5B8BA",
"L. c #BDBDBD",
"P. c #C4A888",
"I. c #D4AE81",
"U. c #DCB482",
"Y. c #C1AA94",
"T. c #D7B691",
"R. c #DBBB95",
"E. c #DABB9B",
"W. c #E2B480",
"Q. c #C8BBAE",
"!. c #D4C0AC",
"~. c #D7C9B8",
"^. c #E3C7A8",
"/. c #E1C9B3",
"(. c #E2CCBA",
"). c #E6D0BD",
"_. c #BCC6CA",
"`. c none",
"'. c none",
"]. c #CDCDCD",
"[. c #DDC6C2",
"{. c #DDCDC4",
"}. c #D7CECE",
"|. c #CDD5D8",
" X c #D3D3D3",
".X c none",
"XX c none",
"oX c #E4CCC8",
"OX c #E5D2C2",
"+X c #E8D6CA",
"@X c #E5D9D6",
"#X c #E8DEDD",
"$X c #EDE2DB",
"%X c #F3E3D4",
"&X c #F0E3DF",
"*X c #F4EADE",
"=X c none",
"-X c #ECE2E3",
";X c #E3E6E8",
":X c #EBEBEB",
">X c #F1E7E7",
",X c #F2EBEB",
"<X c #F7EEE8",
"1X c #F8F2EF",
"2X c #EDF0F1",
"3X c #F5F3F3",
"4X c #F9F5F5",
"5X c #FDF8F5",
"6X c none",
/* pixels */
"6X6X6X6X6X6X6X6X6X6X6X6X6X6X6X6X6X6X6X6X6X6X6X6X6X6X6X6X6X6X6X6X6X6X6X6X6X6X6X6X6X6X6X6X6X6X6X6X6X6X6X6X6X6X6X6X6X6X6X6X6X6X6X6X",
"6X6X6X6X6X6X6X6X6X6X6X6X6X6X6X6X6X6X6X6X6X6X6X6X6X6X6X6X6X6X6X6X6X6X6X6X6X6X6X6X6X6X6X6X6X6X6X6X6X6X6X6X6X6X6X6X6X6X6X6X6X6X6X6X",
"6X6X6X6X6X6X6X6X6X6X6X6X6X6X6X6X6X6X6X6X6X6X6X6X6X6X>X6X6X6X6X6X6X6X6X6X6X6X6X6X6X6X6X6X6X6X6X6X6X6X6X6X6X6X6X6X6X6X6X6X6X6X6X6X",
"6X6X6X6X6X6X6X6X6X6X6X6X6X6X6X6X6X6X6X6X6X6X6X6X6X:X-X6X6X6X6X6X6X6X6X6X6X6X6X6X6X6X6X6X6X6X6X6X6X6X6X6X6X6X6X6X6X6X6X6X6X6X6X6X",
"6X6X6X6X6X6X6X6X6X6X6X6X6X6X6X6X6X6X6X6X6X6X6X6X,X-X-X6X6X,X>X,X6X6X6X6X6X6X6X6X6X6X6X6X6X6X6X6X6X6X6X6X6X6X6X6X6X6X6X6X6X6X6X6X",
"6X6X6X6X6X6X6X6X6X6X6X6X6X6X6X6X6X6X6X6X6X6X6X,X-X-X-X,X3X3X.XM.M.@X3X3X1X1X4X6X6X6X6X6X6X6X6X6X6X6X6X6X6X6X6X6X6X6X6X6X6X6X6X6X",
"6X6X6X6X6X6X6X6X6X6X6X6X6X6X6X6X6X6X6X6X6X6X>X-X-X-X-X-X&X#XS.! ~ `.,X-X-X-X6X6X6X6X6X6X6X6X6X6X6X6X6X6X6X6X6X6X6X6X6X6X6X6X6X6X",
"6X6X6X6X6X6X6X6X6X6X6X6X6X6X6X6X6X6X6X6X6X6X,X-X-X#X-X,X@Xz.] 1.Z..X-X-X-X-X>X,X6X6X6X6X6X6X6X6X6X6X6X6X6X6X6X6X6X6X6X6X6X6X6X6X",
"6X6X6X6X6X6X6X6X6X6X6X6X6X6X6X6X6X6X6X6X6X6X,X#X-X-X-X.XJ.( E J.>X-X-X-X$X-X-X-X6X6X6X6X6X6X6X6X6X6X6X6X6X6X6X6X6X6X6X6X6X6X6X6X",
"6X6X6X6X6X6X6X6X6X6X6X6X6X6X6X6X6X6X6X6X,X>X-X#X-X>X-Xz.~ 1.S..X>X-X#X-X-X-X-X-X>X,X6X6X6X6X6X6X6X6X6X6X6X6X6X6X6X6X6X6X6X6X6X6X",
"6X6X6X6X6X6X6X6X6X6X6X6X6X6X6X6X6X6X6X6X6X>X:X,X-X}.S.[ ! Z.>X>X-X-X-X-X-X-X-X-X#X,X6X6X6X6X6X6X6X6X6X6X6X6X6X6X6X6X6X6X6X6X6X6X",
"6X6X6X6X6X6X6X6X6X6X6X6X6X6X6X6X6X6X6X6X6X6X6X6X-XM.R 1.Q.@X>X-X#X#X-X-X-X-X-X&X-X:X6X6X6X6X6X6X6X6X6X6X6X6X6X6X6X6X6X6X6X6X6X6X",
"6X6X6X6X6X6X6X6X6X6X6X6X6X6X6X6X6X6X6X6X6X6X6X6X-X1.8 1.-X,X-X-X-X-X-X-X@XoX@X>X,X,X6X6X6X6X6X6X6X6X6X6X6X6X6X6X6X6X6X6X6X6X6X6X",
"6X6X6X6X6X6X6X6X6X6X6X6X6X6X6X6X6X6X6X6X6X6X6X6X-Xk.9 1.#X,X-X#X-X-X&X#X/.T.(.-X6X6X6X6X6X6X6X6X6X6X6X6X6X6X6X6X6X6X6X6X6X6X6X6X",
"6X6X6X6X6X6X6X6X6X6X6X6X6X6X6X6X6X6X6X6X6X6X6X6X,Xl.9 1.#X,X#XOX/./.(.~.P.9.Q.-X6X6X6X6X6X6X6X6X6X6X6X6X6X6X6X6X6X6X6X6X6X6X6X6X",
"6X6X6X6X6X6X6X6X6X6X6X6X6X6X6X6X6X6X6X6X6X6X6X6X6Xz.e k.#X,X+XE.I.I.I.I.7.;.Y.>X6X6X6X6X6X6X6X6X6X6X6X6X6X6X6X6X6X6X6X6X6X6X6X6X",
"6X6X6X6X6X6X6X6X6X6X6X6X6X6X6X6X6X6X6X6X6X6X6X6X6X XC.~.;X,X>X(.E.d.s.s.3.=.D.6X6X6X6X6X6X6X6X6X6X6X6X6X6X6X6X6X6X6X6X6X6X6X6X6X",
"6X6X6X6X6X6X6X6X6X6X6X6X6X6X6X6X6X6X6X6X6X6X6X:X:X:X$X X}. X}.@XOXR.I.a.6.;.Q.6X6X6X6X6X6X6X6X6X6X6X6X6X6X6X6X6X6X6X6X6X6X6X6X6X",
"6X6X6X6X6X6X6X6X6X6X6X6X6X6X6X6X6X6X6X6X6X6Xl.] [ [ [ [ ( ( } Y./.).^.I.y.t.(.6X6X6X6X6X6X6X6X6X6X6X6X6X6X6X6X6X6X6X6X6X6X6X6X6X",
"6X6X6X6X6X6X6X6X6X6X6X6X6X6X6X6X6X6X6X6X6XA.e . . X X X X   0 =.B.~.!.p.t.p.).6X6X6X6X6X6X6X6X6X6X6X6X6X6X6X6X6X6X6X6X6X6X6X6X6X",
"6X6X6X6X6X6X6X6X6X6X6X6X6X6X6X6X6X6X6X6Xk.Y $ . . @ = t + + y n Z <.6.:.:.3.~.6X6X6X6X6X6X6X6X6X6X6X6X6X6X6X6X6X6X6X6X6X6X6X6X6X",
"6X6X6X6X6X6X6X6X6X6X6X6X6X6X6X6X6X6X6XA.Y . . . @ = p a p a u # ; N Z Z Z / N.[.,X6X6X6X6X6X6X6X6X6X6X6X6X6X6X6X6X6X6X6X6X6X6X6X",
"6X6X6X6X6X6X6X6X6X6X6X6X6X6X6X6X6X6Xl.e > . . @ t u p p p p p r = $ - - - ; M >.[.6X6X6X6X6X6X6X6X6X6X6X6X6X6X6X6X6X6X6X6X6X6X6X",
"6X6X6X6X6X6X6X6X6X6X6X6X6X6X6X6X6X6X[ . . . . @ u s s a p p p a u # @ @ @ # d M q.[.,X6X6X6X6X6X6X6X6X6X6X6X6X6X6X6X6X6X6X6X6X6X",
"6X6X6X6X6X6X6X6X6X6X6X6X6X6X6X6X6X6X[ . . . . @ u j z h p p p p p u u u u u p k v >..X6X6X6X6X6X6X6X6X6X6X6X6X6X6X6X6X6X6X6X6X6X",
"6X6X6X6X6X6X6X6X6X6X6X6X6X6X6X6X].l.Y . . . . # g z c l h a p p p a p a a p p a z &.oX6X6X6X6X6X6X6X6X6X6X6X6X6X6X6X6X6X6X6X6X6X",
"6X6X6X6X6X6X6X6X6X6X6X6X6X6X6X6Xl.7 . . . . . * l v c v x g p p p p p p p p p a z &.oX6X6X6X6X6X6X6X6X6X6X6X6X6X6X6X6X6X6X6X6X6X",
"6X6X6X6X6X6X6X6X6X6X6X6X6X6X6X6Xj.O . X . . . * l v c c c h p p p p a p p p p a | *.oX6X6X6X6X6X6X6X6X6X6X6X6X6X6X6X6X6X6X6X6X6X",
"6X6X6X6X6X6X6X6X6X6X6X6X6X6X6X6Xj.O . . . . . * c | | | v h p p p p p p p p p k o.2.+X6X6X6X6X6X6X6X6X6X6X6X6X6X6X6X6X6X6X6X6X6X",
"6X6X6X6X6X6X6X6X6X6X6X6X6X6X6X6Xj.O . . . . . y  .X...X...z p i p f p a p p r k *.u.%X6X6X6X6X6X6X6X6X6X6X6X6X6X6X6X6X6X6X6X6X6X",
"6X6X6X6X6X6X6X6X6X6X6X6X6X6X6X6Xj.O . . . . . b @.$.#.O...z p p a p p p p a g C 4.R.<X6X6X6X6X6X6X6X6X6X6X6X6X6X6X6X6X6X6X6X6X6X",
"6X6X6X6X6X6X6X6X6X6X6X6X6X6X6X6Xj.o . . . . . m ,.u.r.@.z a i p p p p p i g +.7.i.R.*X6X6X6X6X6X6X6X6X6X6X6X6X6X6X6X6X6X6X6X6X6X",
"6X6X6X6X6X6X6X6X6X6X6X6X6X6X6X6XC.E 7 . . . . B e.W.i.-.f i p p p p p p i g -.f.f.T.*X6X6X6X6X6X6X6X6X6X6X6X6X6X6X6X6X6X6X6X6X6X",
"6X6X6X6X6X6X6X6X6X6X6X6X6X6X6X6X,X_.^ . . . . B 0.U.y.%.p i a p a p p p i g -.d.f.R.*X6X6X6X6X6X6X6X6X6X6X6X6X6X6X6X6X6X6X6X6X6X",
"6X6X6X6X6X6X6X6X6X6X6X6X6X6X6X6X6X:X[ . . . . B 0.U.i.+.p i p p p p a p t d -.p.f.T.*X6X6X6X6X6X6X6X6X6X6X6X6X6X6X6X6X6X6X6X6X6X",
"6X6X6X6X6X6X6X6X6X6X6X6X6X6X6X6X6X;X[ . . . . B 0.U.i.%.f i p p p p p p % $ ) s.d.R.*X6X6X6X6X6X6X6X6X6X6X6X6X6X6X6X6X6X6X6X6X6X",
"6X6X6X6X6X6X6X6X6X6X6X6X6X6X6X6X6X6XH.[ w . . B 0.U.s.7.+.b % % & = & & X < ) I.^.+X1X6X6X6X6X6X6X6X6X6X6X6X6X6X6X6X6X6X6X6X6X6X",
"6X6X6X6X6X6X6X6X6X6X6X6X6X6X6X6X6X6X6X X^ o O V 0.f.s.d.0.V O . . . . o : D { T.%X6X6X6X6X6X6X6X6X6X6X6X6X6X6X6X6X6X6X6X6X6X6X6X",
"6X6X6X6X6X6X6X6X6X6X6X6X6X6X6X6X6X6X6X:XH.n.n.N.a.d.d.I.i.3./ q , , , , 1 F x.%X6X6X6X6X6X6X6X6X6X6X6X6X6X6X6X6X6X6X6X6X6X6X6X6X",
"6X6X6X6X6X6X6X6X6X6X6X6X6X6X6X6X6X6X6X6X6X6X6X$XE.I.d.d.d.f.w.T 5 5 6 5 5 F v.=X6X6X6X6X6X6X6X6X6X6X6X6X6X6X6X6X6X6X6X6X6X6X6X6X",
"6X6X6X6X6X6X6X6X6X6X6X6X6X6X6X6X6X6X6X6X6X6X6X6X%X^.U.d.I.W.e.W 2 5 5 5 6 S U h.|.6X6X6X6X6X6X6X6X6X6X6X6X6X6X6X6X6X6X6X6X6X6X6X",
"6X6X6X6X6X6X6X6X6X6X6X6X6X6X6X6X6X6X6X6X6X6X6X6X6X{.w.8.8.w.5.H 2 5 5 5 6 6 A K G.6X6X6X6X6X6X6X6X6X6X6X6X6X6X6X6X6X6X6X6X6X6X6X",
"6X6X6X6X6X6X6X6X6X6X6X6X6X6X6X6X6X6X6X6X6X6X6X6X6XF.Q T T H H D 5 5 5 A 5 A A K G.6X6X6X6X6X6X6X6X6X6X6X6X6X6X6X6X6X6X6X6X6X6X6X",
"6X6X6X6X6X6X6X6X6X6X6X6X6X6X6X6X6X6X6X6X6X6X6X6X'.g.D 2 5 2 5 5 6 6 A 5 S A A K G.6X6X6X6X6X6X6X6X6X6X6X6X6X6X6X6X6X6X6X6X6X6X6X",
"6X6X6X6X6X6X6X6X6X6X6X6X6X6X6X6X6X6X6X6X6X6X6X_.` F A 2 2 A A 2 6 6 6 6 6 6 A K G.6X6X6X6X6X6X6X6X6X6X6X6X6X6X6X6X6X6X6X6X6X6X6X",
"6X6X6X6X6X6X6X6X6X6X6X6X6X6X6X6X6X6X6X6X6X6X6XG.K S A A A 4 A A 6 6 5 6 6 S U h.|.6X6X6X6X6X6X6X6X6X6X6X6X6X6X6X6X6X6X6X6X6X6X6X",
"6X6X6X6X6X6X6X6X6X6X6X6X6X6X6X6X6X6X6X6X6X6X6XG.K 4 A S A 4 S S S 5 5 5 6 F b.:X6X6X6X6X6X6X6X6X6X6X6X6X6X6X6X6X6X6X6X6X6X6X6X6X",
"6X6X6X6X6X6X6X6X6X6X6X6X6X6X6X6X6X6X6X6X6X6X6XG.K S 2 4 A S F ` ` J 5 5 S F V.6X6X6X6X6X6X6X6X6X6X6X6X6X6X6X6X6X6X6X6X6X6X6X6X6X",
"6X6X6X6X6X6X6X6X6X6X6X6X6X6X6X6X6X6X6X6X6X6X6XF.J A A S A A I m.b.P 6 6 4 F V.6X6X6X6X6X6X6X6X6X6X6X6X6X6X6X6X6X6X6X6X6X6X6X6X6X",
"6X6X6X6X6X6X6X6X6X6X6X6X6X6X6X6X6X6X6X6X6X6X=XV.J A A 5 D ` c.L.V.K 3 , > 3 c.=XXXXX X=X6X6X6X6X6X6X6X6X6X6X6X6X6X6X6X6X6X6X6X6X",
"6X6X6X6X6X6X6X6X6X6X6X6X6X6X6X6X6X6X6X6X6X:X].c.G 4 4 S I v.`.'.n.L , o . O ] A.L.L.Q.|.:X6X6X6X6X6X6X6X6X6X6X6X6X6X6X6X6X6X6X6X",
"6X6X6X6X6X6X6X6X6X6X6X6X6X6X6X6X6X6X6X6X=X].`.c.q > < _ m.K.`.'.n.e o . . o 9 ~ n.L._.`.].;X6X6X6X6X6X6X6X6X6X6X6X6X6X6X6X6X6X6X",
"6X6X6X6X6X6X6X6X6X6X6X6X6X6X6X6X6X6X6X6X X`._.k.8 . O ^ C.H.L.'.M.E 7 o . . . 9 k.`.`.L.L.XX6X6X6X6X6X6X6X6X6X6X6X6X6X6X6X6X6X6X",
"6X6X6X6X6X6X6X6X6X6X6X6X6X6X6X6X6X6X6X6X].L.L.k.7 . . 8 R n.`.`.K.V.] - . . . 9 k.`.`.L.L. X6X6X6X6X6X6X6X6X6X6X6X6X6X6X6X6X6X6X",
"6X6X6X6X6X6X6X6X6X6X6X6X6X6X6X6X6X6X6X6X XL.Q.k.8 . . . 7 5._.`.`.'.M.! Y Y Y ! n._.`.L.L.XX6X6X6X6X6X6X6X6X6X6X6X6X6X6X6X6X6X6X",
"6X6X6X6X6X6X6X6X6X6X6X6X6X6X6X6X6X6X6X6X X`._.j.8 X . . 7 j._.`.~.`.H.A.C.C.C.A.K.Q._.L.L. X6X6X6X6X6X6X6X6X6X6X6X6X6X6X6X6X6X6X",
"6X6X6X6X6X6X6X6X6X6X6X6X6X6X6X6X6X6X6X6X;X X`.M.' E ! ! ( m.L.L.G.`._.'.'.`.'.`.`.L.L.`. X:X6X6X6X6X6X6X6X6X6X6X6X6X6X6X6X6X6X6X",
"6X6X6X6X6X6X6X6X6X6X6X6X6X6X6X6X6X6X6X6X6X:X].L.J.H.H.H.H.K._.~.L.L.Q._.`.`.`.`.`.L.L. X:X6X6X6X6X6X6X6X6X6X6X6X6X6X6X6X6X6X6X6X",
"6X6X6X6X6X6X6X6X6X6X6X6X6X6X6X6X6X6X6X6X6X6X6X6X6X6X6X6X6X].L.L.L.L.L.L.].6X6X6X6X6X6X:X6X6X6X6X6X6X6X6X6X6X6X6X6X6X6X6X6X6X6X6X",
"6X6X6X6X6X6X6X6X6X6X6X6X6X6X6X6X6X6X6X6X6X6X6X6X6X6X6X6X6X6X6X6X6X6X6X6X6X6X6X6X6X6X6X6X6X6X6X6X6X6X6X6X6X6X6X6X6X6X6X6X6X6X6X6X",
"6X6X6X6X6X6X6X6X6X6X6X6X6X6X6X6X6X6X6X6X6X6X6X6X6X6X6X6X6X6X6X6X6X6X6X6X6X6X6X6X6X6X6X6X6X6X6X6X6X6X6X6X6X6X6X6X6X6X6X6X6X6X6X6X",
"6X6X6X6X6X6X6X6X6X6X6X6X6X6X6X6X6X6X6X6X6X6X6X6X6X6X6X6X6X6X6X6X6X6X6X6X6X6X6X6X6X6X6X6X6X6X6X6X6X6X6X6X6X6X6X6X6X6X6X6X6X6X6X6X",
"6X6X6X6X6X6X6X6X6X6X6X6X6X6X6X6X6X6X6X6X6X6X6X6X6X6X6X6X6X6X6X6X6X6X6X6X6X6X6X6X6X6X6X6X6X6X6X6X6X6X6X6X6X6X6X6X6X6X6X6X6X6X6X6X",
"6X6X6X6X6X6X6X6X6X6X6X6X6X6X6X6X6X6X6X6X6X6X6X6X6X6X6X6X6X6X6X6X6X6X6X6X6X6X6X6X6X6X6X6X6X6X6X6X6X6X6X6X6X6X6X6X6X6X6X6X6X6X6X6X"
};
