/* XPM */
static char *result[] = {
/* columns rows colors chars-per-pixel */
"64 64 212 2 ",
"   c #3B2D0B",
".  c #46360D",
"X  c #4D3C0E",
"o  c #513F0F",
"O  c #54410F",
"+  c #5D570D",
"@  c #5A4610",
"#  c #5E4911",
"$  c #564310",
"%  c #645A0E",
"&  c #685B0F",
"*  c #634D12",
"=  c #684E12",
"-  c #675012",
";  c #6B5312",
":  c #6C5D10",
">  c #715712",
",  c #755A13",
"<  c #7A5E14",
"1  c #4C6C04",
"2  c #596509",
"3  c #467400",
"4  c #4B7401",
"5  c #4D7C00",
"6  c #547305",
"7  c #527E01",
"8  c #5C7A04",
"9  c #6C630E",
"0  c #656F08",
"q  c #666A0A",
"w  c #74660D",
"e  c #6A750A",
"r  c #6D7A09",
"t  c #667906",
"y  c #72750B",
"u  c #7C710F",
"i  c #777D0B",
"p  c #686616",
"a  c #746311",
"s  c #7E6114",
"d  c #7B6B11",
"f  c #756716",
"g  c #7C7111",
"h  c #777816",
"j  c #8F6D0E",
"k  c #916F0F",
"l  c #81740F",
"z  c #8B7B0D",
"x  c #94710E",
"c  c #9B760E",
"v  c #9E790E",
"b  c #836514",
"n  c #866915",
"m  c #8B6B15",
"M  c #8B6C1A",
"N  c #846919",
"B  c #916F16",
"V  c #916E19",
"C  c #837312",
"Z  c #8B7514",
"A  c #8B7A1C",
"S  c #88731D",
"D  c #937216",
"F  c #9B7612",
"G  c #9E7913",
"H  c #957219",
"J  c #997618",
"K  c #9D7919",
"L  c #A57D0D",
"P  c #A37D13",
"I  c #A37E1A",
"U  c #8A6E20",
"Y  c #8B7C21",
"T  c #987622",
"R  c #9C7A20",
"E  c #947823",
"W  c #A17D21",
"Q  c #548300",
"!  c #598600",
"~  c #5C8B00",
"^  c #5E870D",
"/  c #658404",
"(  c #6A8504",
")  c #638C01",
"_  c #6C8B04",
"`  c #638D0C",
"'  c #728D04",
"]  c #77850A",
"[  c #659300",
"{  c #6A9501",
"}  c #6D9A00",
"|  c #6A9309",
" . c #749402",
".. c #739C01",
"X. c #719D0E",
"o. c #7C990C",
"O. c #779C11",
"+. c #6B9713",
"@. c #75A300",
"#. c #79A600",
"$. c #7DAA00",
"%. c #7BA60C",
"&. c #7EA911",
"*. c #7DA119",
"=. c #7A8A22",
"-. c #819C03",
";. c #888817",
":. c #8F8916",
">. c #A68116",
",. c #AB8312",
"<. c #A78119",
"1. c #AB841A",
"2. c #AB8A18",
"3. c #B38A1B",
"4. c #B98E1C",
"5. c #B28918",
"6. c #A99317",
"7. c #BD921B",
"8. c #AD840F",
"9. c #82AD02",
"0. c #83AD0D",
"q. c #85B101",
"w. c #8AB502",
"e. c #8DB901",
"r. c #86B10D",
"t. c #8DB70E",
"y. c #92BD01",
"u. c #93BC0C",
"i. c #84A61B",
"p. c #87AA13",
"a. c #89B414",
"s. c #92BD13",
"d. c #92B91A",
"f. c #8B952D",
"g. c #A48222",
"h. c #AA8522",
"j. c #A7842A",
"k. c #B58E23",
"l. c #BB9224",
"z. c #B29234",
"x. c #B99634",
"c. c #BE9935",
"v. c #BC993B",
"b. c #8BAB28",
"n. c #95BA29",
"m. c #9AB936",
"M. c #93AB2F",
"N. c #A1B23A",
"B. c #C29C34",
"V. c #C29D3E",
"C. c #C6A23E",
"Z. c #94C000",
"A. c #9AC502",
"S. c #9DC901",
"D. c #9AC30C",
"F. c #94C111",
"G. c #99C412",
"H. c #9FC912",
"J. c #9FC81B",
"K. c #A2CD02",
"L. c #A3CC0C",
"P. c #ACD603",
"I. c #ABD40E",
"U. c #ACD60A",
"Y. c #B2DC0E",
"T. c #B0DA05",
"R. c #A2CB19",
"E. c #A9D313",
"W. c #AAD316",
"Q. c #B3DD11",
"!. c #B5DC1D",
"~. c #B6E011",
"^. c #B8E116",
"/. c #B8E01E",
"(. c #9EC425",
"). c #9DC42A",
"_. c #9EC135",
"`. c #A6CC2B",
"'. c #ABD328",
"]. c #B4DD22",
"[. c #B7DC2D",
"{. c #A7C838",
"}. c #ACD233",
"|. c #ADD23C",
" X c #B4DD36",
".X c #B4DA3D",
"XX c #BDE622",
"oX c #BFE924",
"OX c #BCE535",
"+X c #BCE23C",
"@X c #C0E926",
"#X c #C5ED34",
"$X c #C4ED3A",
"%X c #CAF23A",
"&X c #C8F036",
"*X c #ABCA46",
"=X c #B1D343",
"-X c #B9DD44",
";X c #B7DC47",
":X c #B0CA41",
">X c #BCE144",
",X c #BEE14B",
"<X c #C1E643",
"1X c #C3EA45",
"2X c #C7EC4A",
"3X c #CCF345",
"4X c #CEF54A",
"5X c #D0F74A",
"6X c #D2F749",
"7X c #CCF151",
"8X c #D3F954",
"9X c #90B41F",
/* pixels */
"9X9X9X9X9X9X9X9X9X9X9X9X9X9X9X9X9X9X9X9X9X9X9X9X9X9X9X9X9X9X9X9X9X9X9X9X9X9X9X9X9X9X9X9X9X9X9X9X9X9X9X9X9X9X9X9X9X9X9X9X9X9X9X9X",
"9X9X9X9X9X9X9X9X9X9X9X9X9X9X9X9X9X9X9X9X9X9X9X9X9X9X9X9X9X9X9X9X9X9X9X9X9X9X9X9X9X9X9X9X9X9X9X9X9X9X9X9X9X9X9X9X9X9X9X9X9X9X9X9X",
"9X9X9X9X9X9X9X9X9X9X9X9X9X9X9X9X9X9X9X9X9X9X9X9X9X9X9X9X9X9X9X9X9X9X9X9X9X9X9X9X9X9X9X9X9X9X9X9X9X9X9X9X9X9X9X9X9X9X9X9X9X9X9X9X",
"9X9X9X9X9X9X9X9X9X9X9X9X9X9X9X9X9X9X9X9X9X9X9X9X9X9X9X9X9X9X9X9X9X9X9X9X9X9X9X9X9X9X9X9X9X9X9X9X9X9X9X9X9X9X9X9X9X9X9X9X9X9X9X9X",
"9X9X9X9X9X9X9X9X9X9X9X9X9X9X9X9X9X9X9X9X9X9X9X9X> > > > > > ; > > > > > > > > > 9X9X9X9X9X9X9X9X9X9X9X9X9X9X9X9X9X9X9X9X9X9X9X9X",
"9X9X9X9X9X9X9X9X9X9X9X9X9X9X9X9X9X9X9X9X9X9X9X9Xa s s b b b m n b m b b n b a < 9X9X9X9X9X9X9X9X9X9X9X9X9X9X9X9X9X9X9X9X9X9X9X9X",
"9X9X9X9X9X9X9X9X9X9X9X9X9X9X9X9X9X9X> > > , b b m m c P ,.1.3.1.3.3.3.1.1.J H b < ; * # # * 9X9X9X9X9X9X9X9X9X9X9X9X9X9X9X9X9X9X",
"9X9X9X9X9X9X9X9X9X9X9X9X9X9X9X9X9X9X< s b m m M V J c P 5.4.4.3.3.3.3.3.3.1.P H m b < < ; ; 9X9X9X9X9X9X9X9X9X9X9X9X9X9X9X9X9X9X",
"9X9X9X9X9X9X9X9X9X9X9X9X9X9X> > > , b H 1.1.1.<.J B m B B H H H V H V H J K P L ,.1.3.I m s ; # # * 9X9X9X9X9X9X9X9X9X9X9X9X9X9X",
"9X9X9X9X9X9X9X9X9X9X9X9X9X9X< s b m J I 3.3.1.I V b b < < s d d g g d g C z z >.2.4.4.1.P B s , ; ; 9X9X9X9X9X9X9X9X9X9X9X9X9X9X",
"9X9X9X9X9X9X9X9X9X9X9X9X> , b D I 3.3.<.J H V m b , ; ; > a ] ' ' ' ' _ ( / ( i Z V B J P P P J M s ; # 9X9X9X9X9X9X9X9X9X9X9X9X",
"9X9X9X9X9X9X9X9X9X9X9X9X< N J h.k.3.<.J n < < < : % + % 9 y ..#.$.$.#.@.[ ~ [ ) y d m m x L I 1.I D < ; 9X9X9X9X9X9X9X9X9X9X9X9X",
"9X9X9X9X9X9X9X9X9X9X> < b T x.x.W V n b < > ; + 2 1 1 6 /  .q.Z.S.S.Z.q.@.} @...( r Z J n b m H <.<.m s ; # 9X9X9X9X9X9X9X9X9X9X",
"9X9X9X9X9X9X9X9X9X9X< b H h.x.z.V < > ; ; ; + + 4 5 5 Q [ @.w.y.A.A.e.9.} } #.#.{ _ ;.Z s , b B I <.I m < ; 9X9X9X9X9X9X9X9X9X9X",
"9X9X9X9X9X9X9X9X> < b H 1.k.g.M < > * * = + 2 1 5 ~ ) { } ..@.#.#.#.} ~ Q ! } @.} { _ r a < V K D D v G m s ; * 9X9X9X9X9X9X9X9X",
"9X9X9X9X9X9X9X9X> < Z <.3.<.m < > ; % q % + 4 5 Q ~ { ..@.#.@.#.r.&.| ~ Q ! ~ [ } [ ! 7 q a B H m m c v G m ; # 9X9X9X9X9X9X9X9X",
"9X9X9X9X9X9X9X9X> s K 1.J m a > = & r / t 8 Q Q 5 7 [ @.q.e.w.G.OX}.&.{ ..{ Q Q ! ~ 7 5 1 q a b m M m D c k > # 9X9X9X9X9X9X9X9X",
"9X9X9X9X9X9X9X9X< m >.I m < > ; & 0 { ..[ ~ ~ ! 7 Q { 9.y.K.E.].$XOXs.$.9.@.) Q Q Q 3 3 3 1 2 9 d C b m c c s ; 9X9X9X9X9X9X9X9X",
"9X9X9X9X9X9X> s k c K H s ; ; - e  .@.#.} { { [ Q ) 9.y.K.Q.#X$XXXQ.K.y.$.@.@.{ Q 3 3 3 3 3 1 6 t r 9 b c L B < ; * 9X9X9X9X9X9X",
"9X9X9X9X9X9X> b L P J m < ; % e O.r.w.w.q.#.#.@.X.%.y.K.Y.XX&X#XQ.P.~.E.9.@.$...! 4 3 3 5 7 ! ~ [ ( q w k P G m ; * 9X9X9X9X9X9X",
"9X9X9X9X9X9X> b <.1.J < = % t O.m.'.L.S.S.A.e.t.n.`.L.Y.#X%X@XY.P.~.&XOXs.#.@.} ~ 7 3 5 ~ } $.q.#.} / t n D P k > * 9X9X9X9X9X9X",
"9X9X9X9X9X9X; m k.l.H a : e  .a..X<X[.Q.~.Q.P.D.n.`.W.[.5X5X@X~.~.oX%XOXG.9.@.{ ~ Q 7 ! } $.w.e.e.q.} ) y l P v > # 9X9X9X9X9X9X",
"9X9X9X9X9X9X> M x.c.H d r  .9.H.1X4X>X$X3X&XQ.A.r.a.}.<X8X8X5X3X4X&XoXY.A.q.@.[ Q 7 ~ } q.w.$.$.e.e.9...( ] 6.I < # 9X9X9X9X9X9X",
"9X9X9X9X9X9X> U V.V.T u ' #.e.E.3X8X$X+X1X&X~.A.#.%.).-X4X8X4X3X4X#X!.E.L.s.9.[ 5 7 X.t.A.D.t.r.w.e.q.#.~ _ 6.3.< # 9X9X9X9X9X9X",
"9X9X9X9X9X9X> U v.V.T g ' #.e.E.3X5XXXE.~.~.T.S.#.@.r.(.-X>X].E.Q.!.'.}.{.`.r...7 ^ n.'.I.I.OX}.a.#.9.@.Q t 6.1.< # 9X9X9X9X9X9X",
"9X9X9X9X9X9X> M x.B.T g ' #.u.'.1X4X@XY.P.P.~.E.q.#.%.F.|.-XR.D.S.L.)._.m.n.%.} ~ X._.OXY.^.5X1Xs.#.#.../ ] 2.>.< # 9X9X9X9X9X9X",
"9X9X9X9X9X9X> N 3.B.K l ' %.n.|.,X7X5X#X~.~.OXOXH.t.i.m.*X;X}.(.u.w.&.&.0.X.~ ~ ..y.I.Y.P.^.5X3XH.$.} _ ;.>.,.F , # 9X9X9X9X9X9X",
"9X9X9X9X9X9X; b I k.h.:.] o.n.{.}..X<X$XoXoX6X>XG.%.*.b.{.=X*X_.r...{ [ [ ~ ! | s.L.P.T.Y.XX$XOXG.$.) ] 6.4.,.k > # 9X9X9X9X9X9X",
"9X9X9X9X9X9X* > B W c.z.A i o.a.G.L.G.'.OX6X7X=XX.~ | *.b.m.*Xm.O.~ Q 5 5 ! { 0.`.[.I.Q.#X#X].u.#._ e Z 3.4.>.m ; # 9X9X9X9X9X9X",
"9X9X9X9X9X9X# ; b I c.c.j.A ]  .9.w.r.F. X>X=Xb.^ ! } r.m._.{.n.%.~ Q 5 3 ! @.t.`. X!.@X4X1X`.9._ r N J 3.1.J b ; * 9X9X9X9X9X9X",
"9X9X9X9X9X9X* ; < V 1.l.B.z.A i  .%.i.b.a.&.+.` [ } e.E.-X>X'.D.w.$.{ ~ ! ~ } $.F.!.$X5X7X;Xm.i.h C K 1.I J M < ; * 9X9X9X9X9X9X",
"9X9X9X9X9X9X# - , b c 1.B.c.I Z ] ] =.=.` ~ Q Q { q.E.@X%X#XL.S.E.H.9.} [ ) [ ..q.R. X-X:XN.f.f.E R 1.<.H m s , = # 9X9X9X9X9X9X",
"9X9X9X9X9X9X9X9X- > m G 1.4.4.>.Z d p p 4 Q ~ } #.s.+X%XXXY.P.Q.#XOXs.#.} [ [ | *.a.a.i.;.h U Y z.x.g.H m s , - 9X9X9X9X9X9X9X9X",
"9X9X9X9X9X9X9X9X# ; s m c 8.5.4.K n < & 2 8 / '  .a.-X,X!.I.I.!.+X XF.$.@.[ ~ ^ =.f.] ] a U V W v.v.R N s , - @ 9X9X9X9X9X9X9X9X",
"9X9X9X9X9X9X9X9X* * ; < m G ,.,.3.3.I J d a w 9 9 h M._.{.}.}.`.J.s.w.9.@.[ Q 4 9 f d l j I x.x.j.T V s ; - - @ 9X9X9X9X9X9X9X9X",
"9X9X9X9X9X9X9X9X* * - > b m c L 3.4.4.1.J H m s > , Y f.M.N.N.M.p.-.-.o. .( 8 0 w b m J P 4.B.x.g.m s , ; * * @ 9X9X9X9X9X9X9X9X",
"9X9X9X9X9X9X9X9X# - > s < s b B J I 8.,.3.3.3.1.M N N S S Y Y Y C l C C g g g C x P 1.4.4.l.h.R M s ; ; ; ; = O 9X9X9X9X9X9X9X9X",
"9X9X9X9X9X9X9X9X- ; , s < , s b b m c L 5.7.7.5.<.J H A T T T H H V B V V V H K L 8.5.7.4.<.H n s < ; ; ; ; - @ 9X9X9X9X9X9X9X9X",
"9X9X9X9X9X9X9X9X> ; - > b j < > < < b D K I ,.,.5.3.3.k.v.V.V.B.k.3.3.3.5.I L L L L I K J m s , ; - ; ; ; * * O 9X9X9X9X9X9X9X9X",
"9X9X9X9X9X9X9X9X, > ; > b b b b b b b b n m c L I 1.3.l.B.C.C.B.l.4.4.4.5.I L P v c B b b < < , ; = ; ; - = * @ 9X9X9X9X9X9X9X9X",
"9X9X9X9X9X9X9X9X> < < , > a j L I J M s < s b m m V P I W W g.W I I K I I J m m B n b , , < < < > ; = ; ; ; - @ 9X9X9X9X9X9X9X9X",
"9X9X9X9X9X9X9X9X> , < < > , j c >.<.J m m b b b b b b N m N b n n n N n N N < < < s < , , , < < > ; = ; ; ; * @ 9X9X9X9X9X9X9X9X",
"9X9X9X9X9X9X9X9X, > ; > b n b b m J 1.3.3.<.m s , , < , > = ; ; ; ; = ; ; = = ; > < < b b < ; = - ; ; ; ; = * $ 9X9X9X9X9X9X9X9X",
"9X9X9X9X9X9X9X9X, ; ; > < b b b m H 1.4.3.1.J m b b , ; = = ; ; > = * * * * ; > , < < < f < ; = = = ; ; - * * @ 9X9X9X9X9X9X9X9X",
"9X9X9X9X9X9X9X9X> , < , > a j v >.<.H H H J <.1.I P b = ; > b m N < = * # = s N b < ; ; ; ; , < ; ; ; ; ; ; = @ 9X9X9X9X9X9X9X9X",
"9X9X9X9X9X9X9X9X> , < < > , j v >.I J M M H I <.I F b b b b b m V N < = ; , b n b , ; ; ; ; < < > ; - - ; ; - $ 9X9X9X9X9X9X9X9X",
"9X9X9X9X9X9X9X9X, > ; > b b b b m H 1.4.4.1.J m b m k P F V b < < < n m m b > ; = ; , < < < > = = = ; ; - = * @ 9X9X9X9X9X9X9X9X",
"9X9X9X9X9X9X9X9X> ; = ; b b b b m H 1.3.3.1.H m b m k F F V b , < < N m n b > ; ; ; < < < < > * * ; ; ; = # # O 9X9X9X9X9X9X9X9X",
"9X9X9X9X9X9X9X9X9X; ; > ; a j v P I J V V J I 1.<.K n s b b b m m N > > ; , b N f < ; - - > < < > ; ; = * @ O   9X9X9X9X9X9X9X9X",
"9X9X9X9X9X9X9X9X9X9X; ; ; < j v I I J m m H I 1.1.J j s b b b j m N < = ; > b n b < ; - - ; , < > ; - * * @ . 9X9X9X9X9X9X9X9X9X",
"9X9X9X9X9X9X9X9X9X9X- ; > b < b b n I 1.1.I H m b j k c c x b < < < N N M b > ; = ; < < s < ; ; * ; ; ; = @   9X9X9X9X9X9X9X9X9X",
"9X9X9X9X9X9X9X9X9X9X# ; , < , , < b J <.1.K D b s b k c c j b , < b b M n s > ; ; ; , s s , ; * * * > ; * X 9X9X9X9X9X9X9X9X9X9X",
"9X9X9X9X9X9X9X9X9X9X9X9X= > < b m m b b b m c v c k b , b b j m m b > ; ; , N n s , ; = ; ; < < , ; = # . 9X9X9X9X9X9X9X9X9X9X9X",
"9X9X9X9X9X9X9X9X9X9X9X9X# = > b n m < > > < k c c k j < < b b j m N < ; ; > b b b , ; * * ; < < , ; * o 9X9X9X9X9X9X9X9X9X9X9X9X",
"9X9X9X9X9X9X9X9X9X9X9X9X9X9X= > , < s s s s s s b b x c c x b < < < b m N N , ; = ; > > > ; ; - = # . 9X9X9X9X9X9X9X9X9X9X9X9X9X",
"9X9X9X9X9X9X9X9X9X9X9X9X9X9X# = ; > < < b s < , > b j L c j b < < < b m M s > - = - ; ; ; ; = * @ o 9X9X9X9X9X9X9X9X9X9X9X9X9X9X",
"9X9X9X9X9X9X9X9X9X9X9X9X9X9X9X9X* = = ; , < s s b s s s s b m M M N < = > > < < ; ; ; = - * * @ . 9X9X9X9X9X9X9X9X9X9X9X9X9X9X9X",
"9X9X9X9X9X9X9X9X9X9X9X9X9X9X9X9X* * # * ; > < < < < , < , < b m m b ; = * = > < , ; = # # @ # O 9X9X9X9X9X9X9X9X9X9X9X9X9X9X9X9X",
"9X9X9X9X9X9X9X9X9X9X9X9X9X9X9X9X9X9X9X* * - ; - ; ; < s s < > ; = ; > ; ; > ; = = * * # O . 9X9X9X9X9X9X9X9X9X9X9X9X9X9X9X9X9X9X",
"9X9X9X9X9X9X9X9X9X9X9X9X9X9X9X9X9X9X9X9X* # # * # ; , < < < = # * * = > > = * * # # # @ 9X9X9X9X9X9X9X9X9X9X9X9X9X9X9X9X9X9X9X9X",
"9X9X9X9X9X9X9X9X9X9X9X9X9X9X9X9X9X9X9X9X9X9X9X* # = = ; ; - * # * * * = = * # o $ X 9X9X9X9X9X9X9X9X9X9X9X9X9X9X9X9X9X9X9X9X9X9X",
"9X9X9X9X9X9X9X9X9X9X9X9X9X9X9X9X9X9X9X9X9X9X9X9X9X9X* # # * * * * # * * * # @ 9X9X9X9X9X9X9X9X9X9X9X9X9X9X9X9X9X9X9X9X9X9X9X9X9X",
"9X9X9X9X9X9X9X9X9X9X9X9X9X9X9X9X9X9X9X9X9X9X9X9X9X9X9X9X9X9X9X9X9X9X9X9X9X9X9X9X9X9X9X9X9X9X9X9X9X9X9X9X9X9X9X9X9X9X9X9X9X9X9X9X",
"9X9X9X9X9X9X9X9X9X9X9X9X9X9X9X9X9X9X9X9X9X9X9X9X9X9X9X9X9X9X9X9X9X9X9X9X9X9X9X9X9X9X9X9X9X9X9X9X9X9X9X9X9X9X9X9X9X9X9X9X9X9X9X9X"
};
