/* XPM */
static char *result[] = {
/* columns rows colors chars-per-pixel */
"64 64 126 2 ",
"   c #282728",
".  c #2D2B2B",
"X  c #372B20",
"o  c #3C2F23",
"O  c #312D2C",
"+  c #37312E",
"@  c #3A332D",
"#  c #322F30",
"$  c #353233",
"%  c #393535",
"&  c #3D3837",
"*  c #3A3738",
"=  c #3E3A3B",
"-  c #423327",
";  c #44372C",
":  c #47392D",
">  c #4B3A2D",
",  c #503E2F",
"<  c #403730",
"1  c #443A33",
"2  c #4D3F33",
"3  c #413D3E",
"4  c #483F3A",
"5  c #513F30",
"6  c #4F4034",
"7  c #4C423C",
"8  c #554333",
"9  c #594635",
"0  c #5C4836",
"q  c #54463B",
"w  c #584739",
"e  c #57483D",
"r  c #5E4A39",
"t  c #624D3A",
"y  c #66503D",
"u  c #69533F",
"i  c #3F3D40",
"p  c #433F40",
"a  c #454244",
"s  c #494546",
"d  c #4A464A",
"f  c #4D4A4D",
"g  c #524741",
"h  c #554A44",
"j  c #5B4D43",
"k  c #544C4B",
"l  c #594F4C",
"z  c #5D524E",
"x  c #4F4C50",
"c  c #514E52",
"v  c #545155",
"b  c #5D5351",
"n  c #575358",
"m  c #5A565C",
"M  c #5D595D",
"N  c #655141",
"B  c #6D5541",
"V  c #6E5943",
"C  c #65564D",
"Z  c #67584E",
"A  c #68584E",
"S  c #705743",
"D  c #745B46",
"F  c #785D47",
"G  c #775E48",
"H  c #795F48",
"J  c #615652",
"K  c #655A56",
"L  c #6B5C53",
"P  c #675B58",
"I  c #685C59",
"U  c #766246",
"Y  c #776048",
"T  c #7C624B",
"R  c #7E684B",
"E  c #726157",
"W  c #5F5B61",
"Q  c #615D62",
"!  c #656167",
"~  c #666369",
"^  c #69666B",
"/  c #6C686E",
"(  c #6E6A70",
")  c #736F75",
"_  c #747175",
"`  c #757178",
"'  c #79767C",
"]  c #7D7A7F",
"[  c #81664E",
"{  c #83694F",
"}  c #85724E",
"|  c #876B51",
" . c #896D52",
".. c #8C7353",
"X. c #8D7954",
"o. c #907757",
"O. c #917A56",
"+. c #957C58",
"@. c #97815A",
"#. c #9A835C",
"$. c #9F8A5E",
"%. c #A18C5F",
"&. c #9F8560",
"*. c #A18760",
"=. c #A48C61",
"-. c #A98E66",
";. c #A69161",
":. c #A99563",
">. c #AE9967",
",. c #AE9369",
"<. c #B1956A",
"1. c #B49D6B",
"2. c #B99E70",
"3. c #B7A06C",
"4. c #BAA46E",
"5. c #BEA671",
"6. c #C5AD76",
"7. c #C8AF77",
"8. c #C8AF78",
"9. c #CDB37B",
"0. c #D1B67D",
"q. c #7E7B81",
"w. c #817E84",
"e. c #848186",
"r. c #878489",
"t. c #D5BA80",
/* pixels */
"@. . . .|  .S y @.{ { {  . . .y V +.| | | | { | r R X.| | | | | { - - { O.| | | { | { 9 ....{  . .{  .T 9 +...| | | |  .D t +.{ ",
";.@.+.+.+.+.T u ;.@.+.+.+.+.+.V U =.+.+.+.+.+.+.y } $.+.+.+.+.+.O.- > X.%.+.+.+.+.+.O.9 #.#.+.+.+.+.+. .9 $.+.+.+.+.+.+.R y ;.@.",
"3.:.=.;.;.:.X.[ 3.;.;.;.;.;.:.{ ..3.;.;.:.;.;.;.T #.1.;.;.;.;.;.=.9 t =.<.;.;.;.;.;.%.F :.:.;.;.;.;.:.#.G 1.;.;.;.;.;.:.+.T 3.;.",
"9.>.:.:.:.:.+...6.:.:.:.:.:.>.} @.6.:.:.:.:.:.:.R :.4.:.:.:.:.:.:.r y 1.4.;.:.:.:.:.;.T 6.>.:.:.:.:.:.%.R 6.>.:.:.:.:.:.@...7.:.",
"t.7.6.6.5.3.#.o.t.6.6.6.6.4.4.O.&.t.6.6.6.6.4.5.| <.0.6.6.6.6.1.1.t u 2.0.6.6.6.6.2.1.R 6.9.6.6.6.6.3.<.[ 0.8.6.6.6.6.4.$.} t.6.",
",.<.,.-.*.#.R F <.,.-.<.:.#.@.Y | <.,.-.,.-.#.+.V X.<.,.-.,.-.#.O., 9 +.<.:.:.,.-.+.O.y *.<.-.-.,.%.@...B :.<.-.<.-.%.@.{ D ,.,.",
"[ T T F S N 9 t [ H V H S S y 8 y [ T D T V S y 8 V [ H F T S V t o : F [ G G H B S t 5 H [ F F F S B 9 8 [ T S F F S N 8 9 { R ",
" .F F S G B 9 0 [ F F S F F y 5 t | S S D S S y > V R S S S F S t o : G T G S S F S t , H F D S S S S t > [ D F D S F B 9 8 [ F ",
"[ G S G F u 9 9 { F D G D D N 8 y { F S G S G y 8 G R D S G G D t o : F [ u D D D S t , [ F S F D S S 0 9 [ Y D F S D S 0 9 [ F ",
"G G S S F u 9 t [ S D D D D N 5 t [ S F S G S y 8 S T D G D D S t o : D [ D D D D D t , F [ S F D F V t 8 [ D D S F D B 9 8 F S ",
"| G S F F y 9 9 G G S D S F u 9 r D D D G G S y > t D S S G G S t o > u D D D D D S t , u F D D D D S 0 , S D D G F S B 9 9 [ F ",
"| S F S F B 9 8 D D G D F F y 8 9 F F D G S D y 8 y G D D D D D t o > u F D D D D S t , u D D D D D S t 8 S D S S G G N 9 8 | S ",
"4 B D D F y 9 0 [ D F D S G N 9 y [ F D F D D t 2 B T F D D G D t o > u [ D D D D D t , [ u D D D D S t 8 [ F S D D F B 9 9 D D ",
"W 7 r V F S 9 9 { D D D F S y , t { S D S F D u 5 S [ S D D D S t o > [ [ D F F D S t , [ [ D D D D S r 8 [ F S D D S B 0 0 [ D ",
"W f 3 r S u 9 5 T F D D S F u 8 0 F D D F S D t , t F S D D G S t o > u D u [ u D D t > u F u D D D S 0 > F D S D G F y 9 8 T F ",
"( Q x 4 t y 8 9 R S D D D F y , t T D D D D D u > u T F D S D S t o > u [ u u [ D D t > F F F F D F S 0 > T F F D D F u 9 , F y ",
"q.~ c % 1 h h h L Z Z J L Z Z g z E C L L C L Z h L E L L L L L j % 7 Z E L L L L L z k E E A A L A Z z s E Z L Z C J z h g C w ",
"m x p # $ a f x d x d d v f v c c c f v v f v v n v v v v v n v d $ p d c v v v v v v v v v c f v c f v f v f v f d d d f f d = ",
"a p p $ # * p 3 7 i v f a 3 3 3 3 3 a v d 3 3 3 3 p 3 s v d a 3 $ . $ = 3 = d v d p 3 7 = a 3 f v s 7 = i 7 p = f x s 7 p i = % ",
"c a p # O = p p 3 s e./ a 3 a 3 p 3 v e.! a 3 p p 3 3 Q q.W = 3 $ . $ = a 3 M q.Q = 3 3 a 3 3 ^ ] m = a p p p 7 ` ' v = p p 7 $ ",
"c a p # # = p 3 3 a ! c * = 7 3 3 = d ! f * 3 p 3 3 3 c Q d % 3 $ . $ = a = k ! f * p = 3 3 = n W a * a = 3 a 3 M m a * p p = * ",
"v a p $ # $ $ $ % $ % % $ $ $ $ % % $ % % $ % $ $ % $ * * $ $ $ $ . $ * $ $ % * $ $ * $ % $ $ * * $ $ $ % $ $ $ * * $ $ $ $ $ $ ",
"e./ d O . . . . . . . . . . . . . . . . . . . . . . . . . . . . . . . . . . . . . . . . . . . . . . . . . . . . . . . . . . . . ",
") M 3 . 1 0 5 1 8 w w w w w 8 > 6 w w w 8 w q w : 2 w 8 w w w w q o - q w w w 8 w 8 w ; q 8 w 9 w 8 w 8 ; 8 w w w w w 9 6 ; q w ",
"k p # 1 t B 9 5 S S S S S D u 8 8 u S S S S S y > r S S V V S V t o > u Y u D u S V t > y S S S S S u t > B S S u D D u 9 8 u S ",
"* . 1 t F B 8 8 T D D D D D u 8 0 R Y D D D G y 8 B T F G D G S t o > F [ D F F D S t , Y F D D D D S 0 5 T G S D D D S 9 8 R D ",
"# 1 t G D B 8 9 | D D D D D y 8 u [ D D D D F y 8 D T S D D D D t o > U T S F D D F t , [ D F D D D S 0 2 [ G S D D D u 9 9 { F ",
"< t S F D B 9 9 { G D D D S u 8 y { D D D D S y 8 N H F D D D D t o : D R S F D D S t > F F S D D D S 0 8 [ G F D D D V 0 0 { S ",
"N F G S G B 9 r { F S G S G y 8 t [ D D F S D y , u T F S S D S t o > S H S S F G S t 2 D D D D D F S r 8 [ F S D D F B 0 9 T F ",
"D F S D D B 9 9 [ S G G G D y 8 t [ D F D D D N 5 y A N V D G D t o > B F F F S N N w 6 T T D D D D S r 5 R F S D D S V 9 8 F F ",
"| H F S D B 9 9 G S G S S D N 9 t D D D D D D t 1 $ $ $ 4 B S S t o > F H F V j % $ $ % N V D D D D S t 8 S D D D D S B 9 0 [ S ",
"{ D S F D B 8 9 [ F S G G D N 8 9 D D D D D D 1 = * * = = 4 G S t o : y F F e % = % * 3 $ N D D D D S 0 5 S D D D G F B 9 8 [ F ",
"| D D D F B 9 9 G D D D D D u 8 u [ D D D D F @ . a v a . & D D t o : u D D 9 . $ x x $ . r D D D G S t 8 [ D S D D D V 9 9 [ D ",
"| D F D S B 0 t [ G D D D D u 8 u [ D D D S S % . v / v . @ D S t o > F [ D w   i ^ ~ * . j F D D D V r 8 G D F S G D B 9 8 G D ",
"D D S D F N 8 8 H D F D D D u 8 y [ S D G S < n p d m d % & 1 S t o > u H w a v * n n % & % t D D D S 0 > S D D G G S B 9 8 [ D ",
"[ G F D D B 9 0 R D D D D D y 8 t Y S F V 4 v c * * s = * d * 1 0 o > D t a n s $ d a # d 3 % r D D S r 8 T G S F S G B 9 8 T D ",
"{ F D D G N 0 t | S G F D D u 8 t T F S B % ~ p # $ $ $ $ = d $ t o > D 7 x m O $ $ $ + % d % q F D V 0 9 H F F G D D B 0 9 S S ",
" .D D D D B 9 9 H F G S D D u 8 t { S F B = m $ . .   . . + f * 9 o : u q d f . .     O   d i e D D V t 8 S D D D D D B 9 9 R D ",
"R D D D S B 9 8 T D S G D D y 8 t R S G V * f $ O @ @ < + $ n * t o > B 7 a a . ; & ; @ . x a q F D S 0 8 S D D D D S B 8 8 T F ",
"H D D D G B 9 t [ D G S D D y 8 r S G D B & f $ - t u u w = ~ * 0 o : B q p a % B y t 1 O W f q D D S t > D D D G D F B 9 5 F S ",
"[ H S G D N 9 t | S G G S G u , 0 H S G B % d p @ r N N j d W * r o : H e i d 7 N N w ; 3 W a q D D S 0 > [ D D D D D V 0 9 F F ",
"N F D G D B 8 9 [ D F S D D u 8 t [ F S B $ = f i * = = f ~ d + r o : F w $ a d * * = 3 Q n * w F D S 0 , D D D D D D B 0 0 [ S ",
"1 N S D F N 9 8 D D D D D D N 9 t F S F S t O 3 d x m ^ W d + t t o > F F 1 $ a x c ~ ~ v * 6 B D D V t 9 [ F D G D D V 9 5 F S ",
"~ p r V F B 9 r | D D G D G N 9 N [ F S S S r @ # . + + $ + r S t o > u G y 2 O O O $ # . 8 B D D D B t 8 S D D S G G N 8 8 D D ",
"n f 3 e B u 9 9 H D G D D D y 8 0 T F D G F V r > 6 w 0 w r V D t o : F H F t w w w 8 ; 8 B D D D D S t > S D D D D D B 9 , S D ",
"] / c 4 w y 9 , D S S D F D y 2 9 D S S D D D y > t D u S S D S t o > B F F F S S S t : u D D D D D u t 8 S D D D D D N 9 9 F y ",
"' Q f $ & k h h z z z b P C b l z K J I I b I K z b I I I I I I l % 7 l J P P P L P J b P I J K I K C b k K b P K C C z k k z 7 ",
"c d p O # p d d d d s d f d f f f f d f f d f x v f c f f f x x p $ p s d c c d x x x x x x d d f f f x d x d f d a s d d d s * ",
"s p p $ # * p 3 3 a W n a 7 i i 3 3 d P v a = p 3 3 = k M k a = $ . $ = 3 3 f Q c p 3 3 3 3 3 v M f 7 = i 3 a 3 m M f 3 3 p = $ ",
"c p p # O = p p 3 f q.^ a = 3 a p 3 v w.W = p a a 3 = W q.M = 3 $ . $ = 3 3 M q.M = p p 3 3 3 ^ ] v = a i 7 3 3 _ _ f 3 7 i a $ ",
"c p p # O = 3 = = 7 m f * * = = = = s M d $ = = 3 = = f m a $ = $ . $ * 3 = d m a % = = 3 3 = f n a $ = = = 3 = v v = $ = = = $ ",
"M f p $ . $ $ $ $ $ $ # $ $ $ $ $ $ + $ $ $ $ $ $ $ $ $ $ $ $ + $ . + $ $ $ $ + $ $ $ $ + $ $ + $ $ $ $ $ $ $ $ $ $ $ $ $ $ $ $ ",
"r.( d # . O O O O O O + + + . . . O O O O O O O . O O O O O + . O . . O O O O O . O O . O O O O . . O O O O O O . + O O O . + . ",
"/ n = . 2 t 8 > t t 0 t r r t 6 8 t t 0 0 t t t > 8 t t r t r t r o > 9 t t 0 t r t 0 : 0 t t t t t t 9 > 0 t t t 0 t t 8 > r t ",
"a = . 8 N B 9 5 S D D S D S u 8 9 D S D S D S y > t S D S D D S t o > y D D D S D S t > B D S D S S V r > S S D S S S B 8 8 D S ",
"% . 2 N G B 9 9 D D D D D D u > 0 D D D D D D y 8 y D D D D D D t o > y D D D S F D t > u D D D D D S 0 > S D D D D D V 9 9 D D ",
"O 8 y u u u 0 9 D D D D D u y 8 t F S D G F y y , t D F D F D u t o > y F F S F D u t 8 u D D D D S y 0 8 D D F D D V y 0 9 D D ",
"5 u u D [ u 9 8 D D u D Y S y 8 0 F S y S S S t 8 t F u u D D u t o > u F B B S D u t > u D V u D D u t 8 S F u D D S u 9 8 D D ",
"B F u F u u 9 8 D D u D D u y 8 9 D F u F D B y , t F S S D H u t o > y D V B F S u t > S D S V D S u 0 8 u D u D D S y 9 8 D D ",
"F S u u F u 9 9 D D u D S u y 8 t D S S S B N y 8 t F S S D u u t o > y D S S S u u t 8 S D S D D u u t > S D u S V u u 9 8 D D ",
"S D y N u u 9 8 [ u y u u u u 8 9 F S t S y S t 8 t F B y u u u t o > u H u y B u V t 8 u D y u u u B 0 , S D y u u u u 9 8 D D ",
"S S y y u u 9 9 u u t t u u t 8 9 S B t t S y t > t F u t y u y t o > y S B t y u y t > u S u t u V t t > u S u u u u t 9 , D u ",
"0 0 0 0 9 0 8 > t t 0 0 0 0 0 6 , 0 0 0 0 0 9 t > 5 9 9 t 9 9 9 9 o : 9 0 0 0 0 0 0 9 > 9 0 0 0 0 0 0 9 > 9 0 0 t 9 9 0 8 > 0 0 ",
"X X X X X X X X X X X X X X X X X X X X X X X X X X X X X X X X X X X X X X X X X X X X X X X X X X X X X X X X X X X X X X X X "
};
