/* XPM */
static char *result[] = {
/* columns rows colors chars-per-pixel */
"64 64 8 1 ",
"  c #140C1C",
". c #222129",
"X c #442434",
"o c #4E4A4E",
"O c #757161",
"+ c #8595A1",
"@ c #D2AA99",
"# c #DEEED6",
/* pixels */
"................................................................",
".#@++++@@+oO+OOO+++@+Ooo+++++Oo  #@++++@@+oO+OOO+++@+Ooo+++++Oo ",
".@+OOO+++OOoooOOO+++@@+o@@++OOo  @+OOO+++OOoooOOO+++@@+o@@++OOo ",
".+OOOOOOOOO++OooO+OO++Oo@@+OOOo  +OOOOOOOOO++OooO+OO++Oo@@+OOOo ",
".+OoXoOOOoO++OOOoOOO++OX++ooOOo  +OoXoOOOoO++OOOoOOO++OX++ooOOo ",
".OOXOO+OoOoOOOO++OOO++OXOOoo@+O  OOXOO+OoOoOOOO++OOO++OXOOoo@+O ",
".OOoOO@+OOoooOO++O+Ooooo+OOO++O  OOoOO@+OOoooOO++O+Ooooo+OOO++O ",
".#+O+@+++OoOO+oOoO+++o X+OOOOOo  #+O+@+++OoOO+oOoO+++o X+OOOOOo ",
".++OO++++OoOO@oXXo+OO+oXOoOooOo  ++OO++++OoOO@oXXo+OO+oXOoOooOo ",
".OOOOO+OoOO+@#XooOOOoOXo++OooOo  OOOOO+OoOO+@#XooOOOoOXo++OooOo ",
".++OOOOOOOOOOoXoo+oOOo OO+++OOo  ++OOOOOOOOOOoXoo+oOOo OO+++OOo ",
".++OOooO++OOOOoO+ooOOo Ooo+++Oo  ++OOooO++OOOOoO+ooOOo Ooo+++Oo ",
".+OOoXoO++OO++OOOOOOoX OOoO++Oo  +OOoXoO++OO++OOOOOOoX OOoO++Oo ",
".o++ooO++OO++                                      OOXXOooooOOo ",
".O@+OoOOoXoOO  XXXXXXX XXXXX      XXXX  XXXXXXXX   +OoXOooO@+Oo ",
".O+@+OOOOOOOO X+++OOOOOOOOO++Oo  O+@+OOOOOOOOOO+O  +OXoooOO++Oo ",
".Oo++OOO@+OO@ X+oXoOOooXooooOoo  Oo++OOO@+OO@+OOo  +OooXooooOoo ",
".+++OooO++oO+ X+OOOOOOXXoXooOoo  +++OooO++oO++OOO  OOOXXoXooOoo ",
".++OoXoOooooO XOOoOOoo oooOO+oo  ++OoXoOooooOOooo  Ooo oooOO+oo ",
".@@++OOOOoooo  +Ooooo  oXXooOOo  @@++OOOOoooooXXX  Oo  oXXooOOo ",
".@@+OoO@+ooOO  XOOOooXXOoXooOoX  @@+OoO@+ooOOOOoo  +oXXOoXooOoX ",
".++OOOO++oooO X+oOOooooOOOooooX  ++OOOO++oooOoooo  +oooOOOooooX ",
".#+++ooOOooOO XOoooo Xo+oOooooo  #+++ooOOooOOooOo  + Xo+oOooooo ",
".+O+OooOOXoOO  O+oooXXO+ooooXXo  +O+OooOOXoOOOoo+  +XXO+ooooXXo ",
".+++OOOOoooOo  OoooooO+OoooXooO  +++OOOOoooOooooo  +oO+OoooXooO ",
".+O++OX    XoX OoooooooOoooXoo+  +O++OX    Xooooo  +oooOoooXoo+ ",
".+OOo oO+OoX X +OXooXXoO+OooO+o  +OOo oO+OoX  XXX  +XXoO+OooO+o ",
".OOo o+++OOOOX +OOOoXXo+ooXoooo  OOo o+++OOOOoOOo  OXXo+ooXoooo ",
".   o+OOoooo@  +OOOooooOoo oooo     o+OOoooo@OOOo  OoooOoo oooo ",
".Oo+++OOOooXO  OXooXooooX XoooX  Oo+++OOOooXO+Ooo  OooooX XoooX ",
".ooOOOOOOOooO  O XoX  XooooooX   oooooooooooooooo  oo XooooooX  ",
".                                                               ",
".                                                               ",
".#@++++@@+oO+  ++++@+Ooo+++++Oo  #@++++@@+oO+OOOO  @+Ooo+++++OX ",
".@+OOO+++OOoo X+O+++@@+o@@++OOX  @+OOO+++OOoooOOo  +@@+o@@++OOo ",
".+OOOOOOOOO++ X+O+OO++Oo@@+OOOX  +OOOOOOOOO++Oooo  O++Oo@@+OOOo ",
".+OoXoOOOoO++ XOoOOO++OX++ooOOX  +OoXoOOOoO++OOOo  O++OX++ooOOo ",
".OOXOO+OoOoOO X++OOO++OXOOoo@+X  OOXOO+OoOoOOOO+o  O++OXOOoo@+O ",
".OOoOO@+OOooo X++O+Ooooo+OOO++o  OOoOO@+OOoooOO+o  Ooooo+OOO++O ",
".#+O+@+++OoOO XOoO+++o X+OOOOOo  #+O+@+++OoOO+oOo  ++o X+OOOOOo ",
".++OO++++OoOO XXXo+OO+oXOoOooOo  @+OO++++OoOO@oXX  OO+oXOoOooOo ",
".OOOOO+OoOO+@ XOoOOOoOXo++OooOo  +OOOO+OoOO+@#Xoo  OoOXo++OooOo ",
".++OOOOOOOOOO XOo+oOOo OO+++OOo  ++OOOOOOOOOOoXoo  OOo OO+++OOo ",
".++OOooO++OOO  O+ooOOo Ooo+++Oo  ++OOooO++OOOOoOo  +Oo Ooo+++Oo ",
".+OOoXoO++OO+ XOOOOOoX OOoO++OX  +OOoXoO++OO++OOo  +oX OOoO++Oo ",
".o++ooO++OO++ X+#+OOOXXOooooOOX  OOOooO++OO+++O+o  +OXXOooooOOo ",
".O@+OoOOoXoOO X#OOoOOoXOooO@+Oo  OOOOoOOoXoOOOO#o  +OoXOooO@+Oo ",
".O+@+OOOOOOOO  +OoXOOXoooOO++Oo  OOOOOOOOOOOOOO+o  +OXoooOO++Oo ",
".Oo++OOO@+OO@ XOoXoOOooXooooooX  OooooXXoXooOoooo  OOooXooooOoo ",
".+++OooO++oO+                                      +OOXXoXooOoo ",
".++OoXoOooooO                                      +oo oooOO+oo ",
".@@++OOOOoooooO+OOO+++OOO++++Oo  @@++OOOOO+++++O+++@O  oXXooOOo ",
".@@+OoO@+ooOOOOooOOooXXOoXooOoX  @@+OoO@+ooOOOOooOOooXXOoXooOoX ",
".++OOOO++oooOooooOOooooOOOooooX  ++OOOO++oooOooooOOooooOOOooooX ",
".#+++ooOOooOOooOoooo Xo+oOooooo  #+++ooOOooOOooOoooo Xo+oOooooo ",
".+O+OooOOXoOOOoo+oooXXO+ooooXXo  +O+OooOOXoOOOoo+oooXXO+ooooXXo ",
".+++OOOOoooOoooooooooO+OoooXooO  +++OOOOoooOoooooooooO+OoooXooO ",
".+O++OX    XoooooooooooOoooXoo+  +O++OX    XoooooooooooOoooXoo+ ",
".+OOo oO+OoX  XXXXooXXoO+OooO+o  +OOo oO+OoX  XXXXooXXoO+OooO+o ",
".OOo o+++OOOOoOOoOOoXXo+ooXoooo  OOo o+++OOOOoOOoOOoXXo+ooXoooo ",
".   o+OOoooo@OOOOOOooooOoo oooo     o+OOoooo@OOOOOOooooOoo oooo ",
".Oo+++OOOooXO+OoXooXooooX XoooX  Oo+++OOOooXO+OoXooXooooX XoooX ",
".ooOOOOOOOooOOOo XoX  XooooooX   ooOOOOOOOooOOOo XoX  XooooooX  ",
".                                                           X   "
};
